RedHatTextVF-Italic.ufo
<glyph name="dollar" format="2">
  <advance width="538"/>
  <unicode hex="0024"/>
  <outline>
    <contour>
      <point x="175" y="-67" type="line"/>
      <point x="223" y="-67" type="line"/>
      <point x="241" y="20" type="line"/>
      <point x="384" y="20"/>
      <point x="485" y="98"/>
      <point x="485" y="222" type="curve" smooth="yes"/>
      <point x="485" y="289"/>
      <point x="445" y="335"/>
      <point x="356" y="370" type="curve" smooth="yes"/>
      <point x="319" y="384" type="line"/>
      <point x="368" y="615" type="line"/>
      <point x="414" y="605"/>
      <point x="458" y="578"/>
      <point x="497" y="539" type="curve"/>
      <point x="543" y="587" type="line"/>
      <point x="496" y="633"/>
      <point x="439" y="664"/>
      <point x="381" y="676" type="curve"/>
      <point x="400" y="767" type="line"/>
      <point x="352" y="767" type="line"/>
      <point x="334" y="681" type="line"/>
      <point x="192" y="681"/>
      <point x="102" y="611"/>
      <point x="102" y="493" type="curve" smooth="yes"/>
      <point x="102" y="430"/>
      <point x="145" y="375"/>
      <point x="216" y="347" type="curve" smooth="yes"/>
      <point x="260" y="331" type="line"/>
      <point x="208" y="86" type="line"/>
      <point x="157" y="96"/>
      <point x="109" y="123"/>
      <point x="63" y="167" type="curve"/>
      <point x="21" y="117" type="line"/>
      <point x="73" y="67"/>
      <point x="131" y="36"/>
      <point x="195" y="25" type="curve"/>
    </contour>
    <contour>
      <point x="273" y="397" type="line"/>
      <point x="243" y="408" type="line" smooth="yes"/>
      <point x="195" y="428"/>
      <point x="169" y="460"/>
      <point x="169" y="502" type="curve" smooth="yes"/>
      <point x="169" y="575"/>
      <point x="227" y="621"/>
      <point x="321" y="621" type="curve"/>
    </contour>
    <contour>
      <point x="255" y="82" type="curve"/>
      <point x="305" y="318" type="line"/>
      <point x="327" y="309" type="line" smooth="yes"/>
      <point x="390" y="284"/>
      <point x="418" y="254"/>
      <point x="418" y="210" type="curve" smooth="yes"/>
      <point x="418" y="134"/>
      <point x="351" y="82"/>
    </contour>
  </outline>
</glyph>
<glyph name="ampersand" format="2">
  <advance width="656"/>
  <unicode hex="0026"/>
  <outline>
    <contour>
      <point x="596" y="39" type="line"/>
      <point x="567" y="64"/>
      <point x="537" y="93"/>
      <point x="507" y="124" type="curve"/>
      <point x="559" y="181"/>
      <point x="602" y="251"/>
      <point x="637" y="335" type="curve"/>
      <point x="572" y="353" type="line"/>
      <point x="545" y="282"/>
      <point x="508" y="220"/>
      <point x="465" y="170" type="curve"/>
      <point x="411" y="233"/>
      <point x="358" y="303"/>
      <point x="311" y="376" type="curve"/>
      <point x="367" y="404" type="line" smooth="yes"/>
      <point x="470" y="455"/>
      <point x="513" y="509"/>
      <point x="513" y="582" type="curve" smooth="yes"/>
      <point x="513" y="658"/>
      <point x="453" y="711"/>
      <point x="367" y="711" type="curve" smooth="yes"/>
      <point x="263" y="711"/>
      <point x="185" y="632"/>
      <point x="185" y="526" type="curve" smooth="yes"/>
      <point x="185" y="483"/>
      <point x="194" y="448"/>
      <point x="220" y="398" type="curve"/>
      <point x="70" y="329"/>
      <point x="21" y="266"/>
      <point x="21" y="171" type="curve" smooth="yes"/>
      <point x="21" y="62"/>
      <point x="110" y="-11"/>
      <point x="242" y="-11" type="curve" smooth="yes"/>
      <point x="321" y="-11"/>
      <point x="395" y="18"/>
      <point x="458" y="73" type="curve"/>
      <point x="488" y="42"/>
      <point x="518" y="13"/>
      <point x="547" y="-11" type="curve"/>
    </contour>
    <contour>
      <point x="253" y="531" type="curve" smooth="yes"/>
      <point x="253" y="602"/>
      <point x="299" y="653"/>
      <point x="362" y="653" type="curve" smooth="yes"/>
      <point x="411" y="653"/>
      <point x="443" y="621"/>
      <point x="443" y="573" type="curve" smooth="yes"/>
      <point x="443" y="525"/>
      <point x="413" y="489"/>
      <point x="346" y="456" type="curve" smooth="yes"/>
      <point x="285" y="426" type="line"/>
      <point x="262" y="468"/>
      <point x="253" y="498"/>
    </contour>
    <contour>
      <point x="92" y="184" type="curve" smooth="yes"/>
      <point x="92" y="248"/>
      <point x="131" y="295"/>
      <point x="248" y="347" type="curve"/>
      <point x="308" y="253"/>
      <point x="362" y="181"/>
      <point x="417" y="118" type="curve"/>
      <point x="366" y="75"/>
      <point x="309" y="51"/>
      <point x="249" y="51" type="curve" smooth="yes"/>
      <point x="154" y="51"/>
      <point x="92" y="104"/>
    </contour>
  </outline>
</glyph>
<glyph name="parenleft" format="2">
  <advance width="393"/>
  <unicode hex="0028"/>
  <outline>
    <contour>
      <point x="210" y="-216" type="curve"/>
      <point x="258" y="-170" type="line"/>
      <point x="174" y="-101"/>
      <point x="130" y="7"/>
      <point x="130" y="143" type="curve" smooth="yes"/>
      <point x="130" y="363"/>
      <point x="252" y="573"/>
      <point x="427" y="657" type="curve"/>
      <point x="399" y="711" type="line"/>
      <point x="192" y="610"/>
      <point x="61" y="386"/>
      <point x="61" y="137" type="curve" smooth="yes"/>
      <point x="61" y="-15"/>
      <point x="111" y="-135"/>
    </contour>
  </outline>
</glyph>
<glyph name="comma" format="2">
  <advance width="250"/>
  <unicode hex="002C"/>
  <outline>
    <contour>
      <point x="-39" y="-157" type="line"/>
      <point x="18" y="-157" type="line"/>
      <point x="143" y="74" type="line"/>
      <point x="65" y="74" type="line"/>
    </contour>
  </outline>
</glyph>
<glyph name="zero" format="2">
  <advance width="654"/>
  <unicode hex="0030"/>
  <outline>
    <contour>
      <point x="394" y="711" type="curve" smooth="yes"/>
      <point x="220" y="711"/>
      <point x="71" y="504"/>
      <point x="71" y="263" type="curve" smooth="yes"/>
      <point x="71" y="97"/>
      <point x="162" y="-11"/>
      <point x="302" y="-11" type="curve" smooth="yes"/>
      <point x="477" y="-11"/>
      <point x="625" y="195"/>
      <point x="625" y="437" type="curve" smooth="yes"/>
      <point x="625" y="603"/>
      <point x="534" y="711"/>
    </contour>
    <contour>
      <point x="385" y="647" type="curve" smooth="yes"/>
      <point x="490" y="647"/>
      <point x="553" y="568"/>
      <point x="553" y="438" type="curve" smooth="yes"/>
      <point x="553" y="230"/>
      <point x="441" y="53"/>
      <point x="311" y="53" type="curve" smooth="yes"/>
      <point x="207" y="53"/>
      <point x="143" y="133"/>
      <point x="143" y="262" type="curve" smooth="yes"/>
      <point x="143" y="469"/>
      <point x="255" y="647"/>
    </contour>
  </outline>
</glyph>
<glyph name="one" format="2">
  <advance width="301"/>
  <unicode hex="0031"/>
  <outline>
    <contour>
      <point x="97" y="0" type="line"/>
      <point x="167" y="0" type="line"/>
      <point x="316" y="700" type="line"/>
      <point x="272" y="700" type="line"/>
      <point x="122" y="638" type="line"/>
      <point x="108" y="572" type="line"/>
      <point x="228" y="622" type="line"/>
    </contour>
  </outline>
</glyph>
<glyph name="four" format="2">
  <advance width="606"/>
  <unicode hex="0034"/>
  <outline>
    <contour>
      <point x="354" y="0" type="line"/>
      <point x="424" y="0" type="line"/>
      <point x="464" y="187" type="line"/>
      <point x="559" y="187" type="line"/>
      <point x="573" y="250" type="line"/>
      <point x="477" y="250" type="line"/>
      <point x="573" y="700" type="line"/>
      <point x="498" y="700" type="line"/>
      <point x="37" y="244" type="line"/>
      <point x="24" y="187" type="line"/>
      <point x="394" y="187" type="line"/>
    </contour>
    <contour>
      <point x="123" y="250" type="line"/>
      <point x="483" y="607" type="line"/>
      <point x="407" y="250" type="line"/>
    </contour>
  </outline>
</glyph>
<glyph name="nine" format="2">
  <advance width="608"/>
  <unicode hex="0039"/>
  <outline>
    <contour>
      <point x="333" y="711" type="curve" smooth="yes"/>
      <point x="199" y="711"/>
      <point x="82" y="614"/>
      <point x="82" y="465" type="curve" smooth="yes"/>
      <point x="82" y="350"/>
      <point x="169" y="261"/>
      <point x="299" y="261" type="curve" smooth="yes"/>
      <point x="375" y="261"/>
      <point x="445" y="296"/>
      <point x="501" y="358" type="curve"/>
      <point x="480" y="173"/>
      <point x="366" y="54"/>
      <point x="230" y="54" type="curve" smooth="yes"/>
      <point x="181" y="54"/>
      <point x="134" y="72"/>
      <point x="84" y="112" type="curve"/>
      <point x="44" y="53" type="line"/>
      <point x="98" y="12"/>
      <point x="155" y="-11"/>
      <point x="231" y="-11" type="curve" smooth="yes"/>
      <point x="418" y="-11"/>
      <point x="575" y="157"/>
      <point x="575" y="425" type="curve" smooth="yes"/>
      <point x="575" y="607"/>
      <point x="461" y="711"/>
    </contour>
    <contour>
      <point x="324" y="647" type="curve" smooth="yes"/>
      <point x="428" y="647"/>
      <point x="504" y="563"/>
      <point x="504" y="411" type="curve"/>
      <point x="452" y="354"/>
      <point x="382" y="320"/>
      <point x="312" y="320" type="curve" smooth="yes"/>
      <point x="214" y="320"/>
      <point x="154" y="379"/>
      <point x="154" y="466" type="curve" smooth="yes"/>
      <point x="154" y="570"/>
      <point x="228" y="647"/>
    </contour>
  </outline>
</glyph>
<glyph name="greater" format="2">
  <advance width="600"/>
  <unicode hex="003E"/>
  <outline>
    <contour>
      <point x="236" y="594" type="line"/>
      <point x="192" y="549" type="line"/>
      <point x="407" y="354" type="line"/>
      <point x="109" y="155" type="line"/>
      <point x="141" y="103" type="line"/>
      <point x="501" y="348" type="line"/>
    </contour>
  </outline>
</glyph>
<glyph name="at" format="2">
  <advance width="763"/>
  <unicode hex="0040"/>
  <outline>
    <contour>
      <point x="393" y="-144" type="curve" smooth="yes"/>
      <point x="459" y="-144"/>
      <point x="520" y="-128"/>
      <point x="575" y="-99" type="curve"/>
      <point x="558" y="-58" type="line"/>
      <point x="510" y="-85"/>
      <point x="454" y="-99"/>
      <point x="396" y="-99" type="curve" smooth="yes"/>
      <point x="224" y="-99"/>
      <point x="98" y="31"/>
      <point x="98" y="209" type="curve" smooth="yes"/>
      <point x="98" y="390"/>
      <point x="225" y="532"/>
      <point x="387" y="532" type="curve" smooth="yes"/>
      <point x="544" y="532"/>
      <point x="661" y="419"/>
      <point x="661" y="267" type="curve" smooth="yes"/>
      <point x="661" y="172"/>
      <point x="611" y="99"/>
      <point x="544" y="99" type="curve" smooth="yes"/>
      <point x="502" y="99"/>
      <point x="482" y="126"/>
      <point x="491" y="174" type="curve" smooth="yes"/>
      <point x="529" y="366" type="line"/>
      <point x="474" y="366" type="line"/>
      <point x="469" y="340" type="line"/>
      <point x="446" y="365"/>
      <point x="411" y="379"/>
      <point x="374" y="379" type="curve" smooth="yes"/>
      <point x="284" y="379"/>
      <point x="212" y="300"/>
      <point x="212" y="202" type="curve" smooth="yes"/>
      <point x="212" y="116"/>
      <point x="271" y="51"/>
      <point x="349" y="51" type="curve" smooth="yes"/>
      <point x="383" y="51"/>
      <point x="418" y="67"/>
      <point x="450" y="96" type="curve"/>
      <point x="466" y="70"/>
      <point x="497" y="55"/>
      <point x="539" y="55" type="curve" smooth="yes"/>
      <point x="635" y="55"/>
      <point x="707" y="146"/>
      <point x="707" y="269" type="curve" smooth="yes"/>
      <point x="707" y="444"/>
      <point x="570" y="576"/>
      <point x="389" y="576" type="curve" smooth="yes"/>
      <point x="197" y="576"/>
      <point x="52" y="418"/>
      <point x="52" y="207" type="curve" smooth="yes"/>
      <point x="52" y="6"/>
      <point x="198" y="-144"/>
    </contour>
    <contour>
      <point x="360" y="98" type="curve" smooth="yes"/>
      <point x="305" y="98"/>
      <point x="266" y="142"/>
      <point x="266" y="206" type="curve" smooth="yes"/>
      <point x="266" y="274"/>
      <point x="314" y="331"/>
      <point x="372" y="331" type="curve" smooth="yes"/>
      <point x="409" y="331"/>
      <point x="441" y="314"/>
      <point x="459" y="285" type="curve"/>
      <point x="439" y="179" type="line" smooth="yes"/>
      <point x="436" y="162"/>
      <point x="435" y="147"/>
      <point x="437" y="134" type="curve"/>
      <point x="415" y="111"/>
      <point x="388" y="98"/>
    </contour>
  </outline>
</glyph>
<glyph name="D" format="2">
  <advance width="717"/>
  <unicode hex="0044"/>
  <anchor x="440" y="700" name="top"/>
  <outline>
    <contour>
      <point x="34" y="0" type="line"/>
      <point x="291" y="0" type="line" smooth="yes"/>
      <point x="506" y="0"/>
      <point x="681" y="176"/>
      <point x="681" y="391" type="curve" smooth="yes"/>
      <point x="681" y="576"/>
      <point x="561" y="700"/>
      <point x="382" y="700" type="curve" smooth="yes"/>
      <point x="183" y="700" type="line"/>
    </contour>
    <contour>
      <point x="379" y="631" type="line" smooth="yes"/>
      <point x="513" y="631"/>
      <point x="603" y="534"/>
      <point x="603" y="389" type="curve" smooth="yes"/>
      <point x="603" y="211"/>
      <point x="469" y="69"/>
      <point x="302" y="69" type="curve" smooth="yes"/>
      <point x="124" y="69" type="line"/>
      <point x="243" y="631" type="line"/>
    </contour>
  </outline>
</glyph>
<glyph name="E" format="2">
  <advance width="607"/>
  <unicode hex="0045"/>
  <anchor x="410" y="700" name="top"/>
  <anchor x="506" y="0" name="bottom"/>
  <outline>
    <contour>
      <point x="34" y="0" type="line"/>
      <point x="506" y="0" type="line"/>
      <point x="520" y="67" type="line"/>
      <point x="123" y="67" type="line"/>
      <point x="177" y="320" type="line"/>
      <point x="450" y="320" type="line"/>
      <point x="464" y="387" type="line"/>
      <point x="191" y="387" type="line"/>
      <point x="244" y="633" type="line"/>
      <point x="636" y="633" type="line"/>
      <point x="651" y="700" type="line"/>
      <point x="183" y="700" type="line"/>
    </contour>
  </outline>
</glyph>
<glyph name="F" format="2">
  <advance width="598"/>
  <unicode hex="0046"/>
  <outline>
    <contour>
      <point x="34" y="0" type="line"/>
      <point x="109" y="0" type="line"/>
      <point x="176" y="315" type="line"/>
      <point x="445" y="315" type="line"/>
      <point x="459" y="382" type="line"/>
      <point x="190" y="382" type="line"/>
      <point x="244" y="633" type="line"/>
      <point x="636" y="633" type="line"/>
      <point x="651" y="700" type="line"/>
      <point x="183" y="700" type="line"/>
    </contour>
  </outline>
</glyph>
<glyph name="G" format="2">
  <advance width="785"/>
  <unicode hex="0047"/>
  <anchor x="446" y="700" name="top"/>
  <anchor x="388" y="0" name="bottom"/>
  <outline>
    <contour>
      <point x="394" y="-10" type="curve" smooth="yes"/>
      <point x="567" y="-10"/>
      <point x="711" y="125"/>
      <point x="743" y="314" type="curve" smooth="yes"/>
      <point x="752" y="366" type="line"/>
      <point x="444" y="366" type="line"/>
      <point x="433" y="298" type="line"/>
      <point x="664" y="298" type="line"/>
      <point x="637" y="157"/>
      <point x="529" y="59"/>
      <point x="399" y="59" type="curve" smooth="yes"/>
      <point x="256" y="59"/>
      <point x="149" y="171"/>
      <point x="149" y="323" type="curve" smooth="yes"/>
      <point x="149" y="499"/>
      <point x="281" y="641"/>
      <point x="443" y="641" type="curve" smooth="yes"/>
      <point x="535" y="641"/>
      <point x="619" y="599"/>
      <point x="664" y="529" type="curve"/>
      <point x="723" y="579" type="line"/>
      <point x="660" y="665"/>
      <point x="564" y="711"/>
      <point x="448" y="711" type="curve" smooth="yes"/>
      <point x="245" y="711"/>
      <point x="73" y="533"/>
      <point x="73" y="321" type="curve" smooth="yes"/>
      <point x="73" y="133"/>
      <point x="212" y="-10"/>
    </contour>
  </outline>
</glyph>
<glyph name="J" format="2">
  <advance width="588"/>
  <unicode hex="004A"/>
  <anchor x="572" y="700" name="top"/>
  <outline>
    <contour>
      <point x="235" y="-11" type="curve" smooth="yes"/>
      <point x="378" y="-11"/>
      <point x="479" y="85"/>
      <point x="516" y="257" type="curve" smooth="yes"/>
      <point x="610" y="700" type="line"/>
      <point x="534" y="700" type="line"/>
      <point x="441" y="264" type="line" smooth="yes"/>
      <point x="413" y="135"/>
      <point x="337" y="59"/>
      <point x="235" y="59" type="curve" smooth="yes"/>
      <point x="150" y="59"/>
      <point x="98" y="105"/>
      <point x="79" y="196" type="curve"/>
      <point x="11" y="171" type="line"/>
      <point x="34" y="57"/>
      <point x="117" y="-11"/>
    </contour>
  </outline>
</glyph>
<glyph name="L" format="2">
  <advance width="595"/>
  <unicode hex="004C"/>
  <anchor x="221" y="700" name="top"/>
  <anchor x="282" y="0" name="bottom"/>
  <outline>
    <contour>
      <point x="34" y="0" type="line"/>
      <point x="496" y="0" type="line"/>
      <point x="510" y="68" type="line"/>
      <point x="123" y="68" type="line"/>
      <point x="258" y="700" type="line"/>
      <point x="183" y="700" type="line"/>
    </contour>
  </outline>
</glyph>
<glyph name="O" format="2">
  <advance width="795"/>
  <unicode hex="004F"/>
  <anchor x="444" y="700" name="top"/>
  <outline>
    <contour>
      <point x="392" y="-11" type="curve" smooth="yes"/>
      <point x="592" y="-11"/>
      <point x="759" y="167"/>
      <point x="759" y="380" type="curve" smooth="yes"/>
      <point x="759" y="568"/>
      <point x="623" y="711"/>
      <point x="442" y="711" type="curve" smooth="yes"/>
      <point x="242" y="711"/>
      <point x="75" y="533"/>
      <point x="75" y="320" type="curve" smooth="yes"/>
      <point x="75" y="132"/>
      <point x="212" y="-11"/>
    </contour>
    <contour>
      <point x="397" y="59" type="curve" smooth="yes"/>
      <point x="256" y="59"/>
      <point x="151" y="173"/>
      <point x="151" y="324" type="curve" smooth="yes"/>
      <point x="151" y="497"/>
      <point x="280" y="641"/>
      <point x="438" y="641" type="curve" smooth="yes"/>
      <point x="578" y="641"/>
      <point x="683" y="528"/>
      <point x="683" y="376" type="curve" smooth="yes"/>
      <point x="683" y="202"/>
      <point x="554" y="59"/>
    </contour>
  </outline>
</glyph>
<glyph name="T" format="2">
  <advance width="605"/>
  <unicode hex="0054"/>
  <anchor x="398" y="700" name="top"/>
  <anchor x="249" y="0" name="bottom"/>
  <outline>
    <contour>
      <point x="211" y="0" type="line"/>
      <point x="286" y="0" type="line"/>
      <point x="421" y="632" type="line"/>
      <point x="656" y="632" type="line"/>
      <point x="671" y="700" type="line"/>
      <point x="123" y="700" type="line"/>
      <point x="108" y="632" type="line"/>
      <point x="346" y="632" type="line"/>
    </contour>
  </outline>
</glyph>
<glyph name="V" format="2">
  <advance width="647"/>
  <unicode hex="0056"/>
  <outline>
    <contour>
      <point x="227" y="0" type="line"/>
      <point x="318" y="0" type="line"/>
      <point x="733" y="700" type="line"/>
      <point x="651" y="700" type="line"/>
      <point x="285" y="72" type="line"/>
      <point x="181" y="700" type="line"/>
      <point x="105" y="700" type="line"/>
    </contour>
  </outline>
</glyph>
<glyph name="W" format="2">
  <advance width="879"/>
  <unicode hex="0057"/>
  <anchor x="532" y="700" name="top"/>
  <outline>
    <contour>
      <point x="136" y="0" type="line"/>
      <point x="212" y="0" type="line"/>
      <point x="512" y="594" type="line"/>
      <point x="560" y="0" type="line"/>
      <point x="637" y="0" type="line"/>
      <point x="934" y="700" type="line"/>
      <point x="857" y="700" type="line"/>
      <point x="618" y="124" type="line"/>
      <point x="570" y="700" type="line"/>
      <point x="497" y="700" type="line"/>
      <point x="206" y="124" type="line"/>
      <point x="210" y="700" type="line"/>
      <point x="136" y="700" type="line"/>
    </contour>
  </outline>
</glyph>
<glyph name="X" format="2">
  <advance width="641"/>
  <unicode hex="0058"/>
  <outline>
    <contour>
      <point x="-46" y="0" type="line"/>
      <point x="51" y="0" type="line"/>
      <point x="334" y="304" type="line"/>
      <point x="490" y="0" type="line"/>
      <point x="574" y="0" type="line"/>
      <point x="387" y="359" type="line"/>
      <point x="710" y="700" type="line"/>
      <point x="615" y="700" type="line"/>
      <point x="354" y="422" type="line"/>
      <point x="212" y="700" type="line"/>
      <point x="127" y="700" type="line"/>
      <point x="300" y="367" type="line"/>
    </contour>
  </outline>
</glyph>
<glyph name="Y" format="2">
  <advance width="633"/>
  <unicode hex="0059"/>
  <anchor x="399" y="700" name="top"/>
  <outline>
    <contour>
      <point x="224" y="0" type="line"/>
      <point x="300" y="0" type="line"/>
      <point x="360" y="283" type="line"/>
      <point x="717" y="700" type="line"/>
      <point x="627" y="700" type="line"/>
      <point x="334" y="353" type="line"/>
      <point x="187" y="700" type="line"/>
      <point x="107" y="700" type="line"/>
      <point x="285" y="287" type="line"/>
    </contour>
  </outline>
</glyph>
<glyph name="bracketleft" format="2">
  <advance width="355"/>
  <unicode hex="005B"/>
  <outline>
    <contour>
      <point x="-32" y="-215" type="line"/>
      <point x="204" y="-215" type="line"/>
      <point x="217" y="-155" type="line"/>
      <point x="50" y="-155" type="line"/>
      <point x="219" y="640" type="line"/>
      <point x="386" y="640" type="line"/>
      <point x="399" y="700" type="line"/>
      <point x="163" y="700" type="line"/>
    </contour>
  </outline>
</glyph>
<glyph name="a" format="2">
  <advance width="516"/>
  <unicode hex="0061"/>
  <note>
Version created Mon Aug  6 16:22:34 2018
</note>
  <anchor x="295" y="488" name="top"/>
  <anchor x="394" y="0" name="bottom"/>
  <outline>
    <contour>
      <point x="191" y="-7" type="curve" smooth="yes"/>
      <point x="241" y="-7"/>
      <point x="287" y="10"/>
      <point x="333" y="46" type="curve"/>
      <point x="323" y="0" type="line"/>
      <point x="394" y="0" type="line"/>
      <point x="462" y="305" type="line" smooth="yes"/>
      <point x="488" y="423"/>
      <point x="423" y="495"/>
      <point x="292" y="495" type="curve" smooth="yes"/>
      <point x="239" y="495"/>
      <point x="183" y="482"/>
      <point x="119" y="455" type="curve"/>
      <point x="139" y="398" type="line"/>
      <point x="196" y="424"/>
      <point x="239" y="435"/>
      <point x="279" y="435" type="curve" smooth="yes"/>
      <point x="372" y="435"/>
      <point x="410" y="389"/>
      <point x="390" y="299" type="curve" smooth="yes"/>
      <point x="377" y="240" type="line"/>
      <point x="335" y="270"/>
      <point x="279" y="287"/>
      <point x="216" y="287" type="curve" smooth="yes"/>
      <point x="105" y="287"/>
      <point x="29" y="223"/>
      <point x="29" y="130" type="curve" smooth="yes"/>
      <point x="29" y="47"/>
      <point x="94" y="-7"/>
    </contour>
    <contour>
      <point x="212" y="48" type="curve" smooth="yes"/>
      <point x="140" y="48"/>
      <point x="98" y="81"/>
      <point x="98" y="138" type="curve" smooth="yes"/>
      <point x="98" y="193"/>
      <point x="150" y="233"/>
      <point x="223" y="233" type="curve" smooth="yes"/>
      <point x="283" y="233"/>
      <point x="328" y="220"/>
      <point x="366" y="191" type="curve"/>
      <point x="345" y="98" type="line"/>
      <point x="302" y="64"/>
      <point x="260" y="48"/>
    </contour>
  </outline>
</glyph>
<glyph name="c" format="2">
  <advance width="497"/>
  <unicode hex="0063"/>
  <anchor x="314" y="488" name="top"/>
  <anchor x="251" y="0" name="bottom"/>
  <outline>
    <contour>
      <point x="261" y="-9" type="curve" smooth="yes"/>
      <point x="324" y="-9"/>
      <point x="387" y="13"/>
      <point x="438" y="56" type="curve"/>
      <point x="404" y="103" type="line"/>
      <point x="366" y="73"/>
      <point x="320" y="55"/>
      <point x="272" y="55" type="curve" smooth="yes"/>
      <point x="188" y="55"/>
      <point x="122" y="124"/>
      <point x="122" y="214" type="curve" smooth="yes"/>
      <point x="122" y="330"/>
      <point x="210" y="428"/>
      <point x="313" y="428" type="curve" smooth="yes"/>
      <point x="368" y="428"/>
      <point x="414" y="403"/>
      <point x="445" y="356" type="curve"/>
      <point x="499" y="401" type="line"/>
      <point x="461" y="458"/>
      <point x="389" y="494"/>
      <point x="316" y="494" type="curve" smooth="yes"/>
      <point x="172" y="494"/>
      <point x="51" y="365"/>
      <point x="51" y="210" type="curve" smooth="yes"/>
      <point x="51" y="83"/>
      <point x="140" y="-9"/>
    </contour>
  </outline>
</glyph>
<glyph name="d" format="2">
  <advance width="571"/>
  <unicode hex="0064"/>
  <outline>
    <contour>
      <point x="245" y="-7" type="curve" smooth="yes"/>
      <point x="297" y="-7"/>
      <point x="343" y="12"/>
      <point x="381" y="46" type="curve"/>
      <point x="371" y="0" type="line"/>
      <point x="442" y="0" type="line"/>
      <point x="595" y="737" type="line"/>
      <point x="521" y="722" type="line"/>
      <point x="458" y="415" type="line"/>
      <point x="423" y="465"/>
      <point x="369" y="493"/>
      <point x="303" y="493" type="curve" smooth="yes"/>
      <point x="164" y="493"/>
      <point x="51" y="367"/>
      <point x="51" y="214" type="curve" smooth="yes"/>
      <point x="51" y="88"/>
      <point x="133" y="-7"/>
    </contour>
    <contour>
      <point x="271" y="56" type="curve" smooth="yes"/>
      <point x="183" y="56"/>
      <point x="122" y="123"/>
      <point x="122" y="220" type="curve" smooth="yes"/>
      <point x="122" y="337"/>
      <point x="206" y="429"/>
      <point x="312" y="429" type="curve" smooth="yes"/>
      <point x="368" y="429"/>
      <point x="419" y="400"/>
      <point x="445" y="356" type="curve"/>
      <point x="393" y="104" type="line"/>
      <point x="358" y="73"/>
      <point x="316" y="56"/>
    </contour>
  </outline>
</glyph>
<glyph name="f" format="2">
  <advance width="362"/>
  <unicode hex="0066"/>
  <outline>
    <contour>
      <point x="80" y="0" type="line"/>
      <point x="152" y="0" type="line"/>
      <point x="243" y="428" type="line"/>
      <point x="381" y="428" type="line"/>
      <point x="395" y="488" type="line"/>
      <point x="256" y="488" type="line"/>
      <point x="280" y="599" type="line" smooth="yes"/>
      <point x="292" y="656"/>
      <point x="317" y="679"/>
      <point x="366" y="679" type="curve" smooth="yes"/>
      <point x="390" y="679"/>
      <point x="409" y="675"/>
      <point x="431" y="666" type="curve"/>
      <point x="444" y="731" type="line"/>
      <point x="423" y="740"/>
      <point x="397" y="745"/>
      <point x="368" y="745" type="curve" smooth="yes"/>
      <point x="285" y="745"/>
      <point x="229" y="695"/>
      <point x="209" y="605" type="curve" smooth="yes"/>
      <point x="184" y="488" type="line"/>
      <point x="80" y="488" type="line"/>
      <point x="66" y="428" type="line"/>
      <point x="171" y="428" type="line"/>
    </contour>
  </outline>
</glyph>
<glyph name="j" format="2">
  <advance width="220"/>
  <unicode hex="006A"/>
  <outline>
    <contour>
      <point x="189" y="608" type="curve" smooth="yes"/>
      <point x="220" y="608"/>
      <point x="246" y="635"/>
      <point x="246" y="666" type="curve" smooth="yes"/>
      <point x="246" y="692"/>
      <point x="226" y="713"/>
      <point x="200" y="713" type="curve" smooth="yes"/>
      <point x="170" y="713"/>
      <point x="143" y="685"/>
      <point x="143" y="655" type="curve" smooth="yes"/>
      <point x="143" y="628"/>
      <point x="162" y="608"/>
    </contour>
    <contour>
      <point x="-63" y="-219" type="curve" smooth="yes"/>
      <point x="8" y="-219"/>
      <point x="57" y="-176"/>
      <point x="73" y="-100" type="curve" smooth="yes"/>
      <point x="200" y="488" type="line"/>
      <point x="128" y="488" type="line"/>
      <point x="4" y="-93" type="line" smooth="yes"/>
      <point x="-5" y="-137"/>
      <point x="-25" y="-154"/>
      <point x="-61" y="-154" type="curve" smooth="yes"/>
      <point x="-79" y="-154"/>
      <point x="-91" y="-152"/>
      <point x="-101" y="-148" type="curve"/>
      <point x="-115" y="-211" type="line"/>
      <point x="-102" y="-216"/>
      <point x="-81" y="-219"/>
    </contour>
  </outline>
</glyph>
<glyph name="k" format="2">
  <advance width="478"/>
  <unicode hex="006B"/>
  <anchor x="207" y="0" name="bottom"/>
  <outline>
    <contour>
      <point x="21" y="0" type="line"/>
      <point x="93" y="0" type="line"/>
      <point x="142" y="236" type="line"/>
      <point x="330" y="0" type="line"/>
      <point x="415" y="0" type="line"/>
      <point x="213" y="250" type="line"/>
      <point x="517" y="488" type="line"/>
      <point x="421" y="488" type="line"/>
      <point x="150" y="273" type="line"/>
      <point x="247" y="737" type="line"/>
      <point x="173" y="722" type="line"/>
    </contour>
  </outline>
</glyph>
<glyph name="o" format="2">
  <advance width="570"/>
  <unicode hex="006F"/>
  <anchor x="309" y="488" name="top"/>
  <outline>
    <contour>
      <point x="261" y="-10" type="curve" smooth="yes"/>
      <point x="402" y="-10"/>
      <point x="518" y="116"/>
      <point x="518" y="269" type="curve" smooth="yes"/>
      <point x="518" y="403"/>
      <point x="432" y="497"/>
      <point x="307" y="497" type="curve" smooth="yes"/>
      <point x="166" y="497"/>
      <point x="51" y="372"/>
      <point x="51" y="218" type="curve" smooth="yes"/>
      <point x="51" y="85"/>
      <point x="139" y="-10"/>
    </contour>
    <contour>
      <point x="265" y="55" type="curve" smooth="yes"/>
      <point x="180" y="55"/>
      <point x="122" y="122"/>
      <point x="122" y="219" type="curve" smooth="yes"/>
      <point x="122" y="337"/>
      <point x="203" y="433"/>
      <point x="304" y="433" type="curve" smooth="yes"/>
      <point x="389" y="433"/>
      <point x="446" y="366"/>
      <point x="446" y="269" type="curve" smooth="yes"/>
      <point x="446" y="150"/>
      <point x="366" y="55"/>
    </contour>
  </outline>
</glyph>
<glyph name="p" format="2">
  <advance width="571"/>
  <unicode hex="0070"/>
  <outline>
    <contour>
      <point x="-22" y="-209" type="line"/>
      <point x="50" y="-209" type="line"/>
      <point x="111" y="74" type="line"/>
      <point x="144" y="21"/>
      <point x="200" y="-8"/>
      <point x="267" y="-8" type="curve" smooth="yes"/>
      <point x="406" y="-8"/>
      <point x="520" y="118"/>
      <point x="520" y="271" type="curve" smooth="yes"/>
      <point x="520" y="398"/>
      <point x="437" y="492"/>
      <point x="325" y="492" type="curve" smooth="yes"/>
      <point x="272" y="492"/>
      <point x="225" y="472"/>
      <point x="187" y="436" type="curve"/>
      <point x="198" y="488" type="line"/>
      <point x="128" y="488" type="line"/>
    </contour>
    <contour>
      <point x="299" y="430" type="curve" smooth="yes"/>
      <point x="388" y="430"/>
      <point x="449" y="363"/>
      <point x="449" y="265" type="curve" smooth="yes"/>
      <point x="449" y="148"/>
      <point x="365" y="56"/>
      <point x="258" y="56" type="curve" smooth="yes"/>
      <point x="201" y="56"/>
      <point x="148" y="87"/>
      <point x="123" y="133" type="curve"/>
      <point x="176" y="380" type="line"/>
      <point x="211" y="412"/>
      <point x="254" y="430"/>
    </contour>
  </outline>
</glyph>
<glyph name="s" format="2">
  <advance width="443"/>
  <unicode hex="0073"/>
  <note>
Version created Fri Aug  3 17:49:29 2018
</note>
  <anchor x="233" y="488" name="top"/>
  <anchor x="195" y="0" name="bottom"/>
  <outline>
    <contour>
      <point x="204" y="-10" type="curve" smooth="yes"/>
      <point x="310" y="-10"/>
      <point x="389" y="58"/>
      <point x="389" y="148" type="curve" smooth="yes"/>
      <point x="389" y="209"/>
      <point x="354" y="244"/>
      <point x="270" y="268" type="curve" smooth="yes"/>
      <point x="192" y="290" type="line" smooth="yes"/>
      <point x="141" y="304"/>
      <point x="122" y="324"/>
      <point x="122" y="360" type="curve" smooth="yes"/>
      <point x="122" y="406"/>
      <point x="163" y="437"/>
      <point x="225" y="437" type="curve" smooth="yes"/>
      <point x="273" y="437"/>
      <point x="328" y="414"/>
      <point x="376" y="374" type="curve"/>
      <point x="420" y="423" type="line"/>
      <point x="362" y="472"/>
      <point x="299" y="497"/>
      <point x="229" y="497" type="curve" smooth="yes"/>
      <point x="127" y="497"/>
      <point x="57" y="438"/>
      <point x="57" y="353" type="curve" smooth="yes"/>
      <point x="57" y="290"/>
      <point x="93" y="250"/>
      <point x="170" y="228" type="curve" smooth="yes"/>
      <point x="247" y="208" type="line" smooth="yes"/>
      <point x="301" y="192"/>
      <point x="321" y="173"/>
      <point x="321" y="139" type="curve" smooth="yes"/>
      <point x="321" y="89"/>
      <point x="270" y="49"/>
      <point x="205" y="49" type="curve" smooth="yes"/>
      <point x="146" y="49"/>
      <point x="105" y="67"/>
      <point x="47" y="122" type="curve"/>
      <point x="3" y="76" type="line"/>
      <point x="55" y="20"/>
      <point x="125" y="-10"/>
    </contour>
  </outline>
</glyph>
<glyph name="u" format="2">
  <advance width="541"/>
  <unicode hex="0075"/>
  <anchor x="311" y="488" name="top"/>
  <anchor x="413" y="0" name="bottom"/>
  <outline>
    <contour>
      <point x="203" y="-7" type="curve" smooth="yes"/>
      <point x="261" y="-7"/>
      <point x="312" y="19"/>
      <point x="356" y="70" type="curve"/>
      <point x="341" y="0" type="line"/>
      <point x="413" y="0" type="line"/>
      <point x="519" y="488" type="line"/>
      <point x="447" y="488" type="line"/>
      <point x="367" y="121" type="line"/>
      <point x="330" y="76"/>
      <point x="284" y="53"/>
      <point x="234" y="53" type="curve" smooth="yes"/>
      <point x="154" y="53"/>
      <point x="112" y="113"/>
      <point x="132" y="203" type="curve" smooth="yes"/>
      <point x="195" y="488" type="line"/>
      <point x="123" y="488" type="line"/>
      <point x="58" y="189" type="line" smooth="yes"/>
      <point x="33" y="76"/>
      <point x="95" y="-7"/>
    </contour>
  </outline>
</glyph>
<glyph name="w" format="2">
  <advance width="684"/>
  <unicode hex="0077"/>
  <anchor x="394" y="488" name="top"/>
  <outline>
    <contour>
      <point x="106" y="0" type="line"/>
      <point x="176" y="0" type="line"/>
      <point x="374" y="393" type="line"/>
      <point x="403" y="0" type="line"/>
      <point x="473" y="0" type="line"/>
      <point x="710" y="488" type="line"/>
      <point x="639" y="488" type="line"/>
      <point x="457" y="98" type="line"/>
      <point x="426" y="488" type="line"/>
      <point x="362" y="488" type="line"/>
      <point x="165" y="98" type="line"/>
      <point x="149" y="488" type="line"/>
      <point x="81" y="488" type="line"/>
    </contour>
  </outline>
</glyph>
<glyph name="braceright" format="2">
  <advance width="386"/>
  <unicode hex="007D"/>
  <outline>
    <contour>
      <point x="208" y="711" type="curve" smooth="yes"/>
      <point x="189" y="711"/>
      <point x="170" y="709"/>
      <point x="145" y="702" type="curve"/>
      <point x="146" y="644" type="line"/>
      <point x="165" y="650"/>
      <point x="179" y="652"/>
      <point x="194" y="652" type="curve" smooth="yes"/>
      <point x="268" y="652"/>
      <point x="279" y="593"/>
      <point x="238" y="526" type="curve" smooth="yes"/>
      <point x="169" y="409" type="line" smooth="yes"/>
      <point x="127" y="339"/>
      <point x="145" y="272"/>
      <point x="212" y="247" type="curve"/>
      <point x="212" y="248" type="line"/>
      <point x="136" y="231"/>
      <point x="91" y="166"/>
      <point x="103" y="91" type="curve" smooth="yes"/>
      <point x="125" y="-42" type="line" smooth="yes"/>
      <point x="137" y="-112"/>
      <point x="102" y="-159"/>
      <point x="42" y="-159" type="curve" smooth="yes"/>
      <point x="25" y="-159"/>
      <point x="0" y="-154"/>
      <point x="-20" y="-144" type="curve"/>
      <point x="-46" y="-200" type="line"/>
      <point x="-19" y="-213"/>
      <point x="11" y="-219"/>
      <point x="42" y="-219" type="curve" smooth="yes"/>
      <point x="144" y="-219"/>
      <point x="208" y="-137"/>
      <point x="188" y="-29" type="curve" smooth="yes"/>
      <point x="167" y="83" type="line" smooth="yes"/>
      <point x="153" y="158"/>
      <point x="193" y="213"/>
      <point x="263" y="213" type="curve" smooth="yes"/>
      <point x="337" y="213" type="line"/>
      <point x="350" y="274" type="line"/>
      <point x="276" y="274" type="line" smooth="yes"/>
      <point x="209" y="274"/>
      <point x="191" y="336"/>
      <point x="236" y="408" type="curve" smooth="yes"/>
      <point x="296" y="505" type="line" smooth="yes"/>
      <point x="362" y="610"/>
      <point x="336" y="711"/>
    </contour>
  </outline>
</glyph>
<glyph name="cent" format="2">
  <advance width="497"/>
  <unicode hex="00A2"/>
  <outline>
    <contour>
      <point x="182" y="-118" type="line"/>
      <point x="230" y="-118" type="line"/>
      <point x="253" y="-9" type="line"/>
      <point x="319" y="-9"/>
      <point x="385" y="11"/>
      <point x="438" y="56" type="curve"/>
      <point x="404" y="103" type="line"/>
      <point x="366" y="73"/>
      <point x="320" y="55"/>
      <point x="267" y="55" type="curve"/>
      <point x="346" y="425" type="line"/>
      <point x="386" y="417"/>
      <point x="420" y="393"/>
      <point x="445" y="356" type="curve"/>
      <point x="499" y="401" type="line"/>
      <point x="469" y="447"/>
      <point x="417" y="479"/>
      <point x="360" y="490" type="curve"/>
      <point x="385" y="609" type="line"/>
      <point x="336" y="609" type="line"/>
      <point x="312" y="494" type="line"/>
      <point x="172" y="494"/>
      <point x="51" y="365"/>
      <point x="51" y="210" type="curve" smooth="yes"/>
      <point x="51" y="103"/>
      <point x="114" y="21"/>
      <point x="206" y="-2" type="curve"/>
    </contour>
    <contour>
      <point x="221" y="64" type="line"/>
      <point x="163" y="86"/>
      <point x="122" y="143"/>
      <point x="122" y="214" type="curve" smooth="yes"/>
      <point x="122" y="324"/>
      <point x="201" y="418"/>
      <point x="297" y="427" type="curve"/>
    </contour>
  </outline>
</glyph>
<glyph name="uni00A4" format="2">
  <advance width="681"/>
  <unicode hex="00A4"/>
  <outline>
    <contour>
      <point x="85" y="64" type="line"/>
      <point x="178" y="158" type="line"/>
      <point x="222" y="122"/>
      <point x="279" y="100"/>
      <point x="341" y="100" type="curve" smooth="yes"/>
      <point x="402" y="100"/>
      <point x="458" y="121"/>
      <point x="502" y="157" type="curve"/>
      <point x="596" y="63" type="line"/>
      <point x="636" y="104" type="line"/>
      <point x="542" y="199" type="line"/>
      <point x="576" y="243"/>
      <point x="596" y="299"/>
      <point x="596" y="361" type="curve" smooth="yes"/>
      <point x="596" y="424"/>
      <point x="575" y="480"/>
      <point x="540" y="524" type="curve"/>
      <point x="635" y="619" type="line"/>
      <point x="596" y="659" type="line"/>
      <point x="502" y="564" type="line"/>
      <point x="458" y="600"/>
      <point x="402" y="621"/>
      <point x="341" y="621" type="curve" smooth="yes"/>
      <point x="280" y="621"/>
      <point x="224" y="600"/>
      <point x="180" y="564" type="curve"/>
      <point x="86" y="659" type="line"/>
      <point x="46" y="618" type="line"/>
      <point x="140" y="523" type="line"/>
      <point x="105" y="479"/>
      <point x="85" y="423"/>
      <point x="85" y="361" type="curve" smooth="yes"/>
      <point x="85" y="299"/>
      <point x="105" y="242"/>
      <point x="139" y="198" type="curve"/>
      <point x="46" y="104" type="line"/>
    </contour>
    <contour>
      <point x="341" y="166" type="curve" smooth="yes"/>
      <point x="238" y="166"/>
      <point x="158" y="252"/>
      <point x="158" y="361" type="curve" smooth="yes"/>
      <point x="158" y="470"/>
      <point x="239" y="555"/>
      <point x="341" y="555" type="curve" smooth="yes"/>
      <point x="443" y="555"/>
      <point x="523" y="470"/>
      <point x="523" y="361" type="curve" smooth="yes"/>
      <point x="523" y="252"/>
      <point x="443" y="166"/>
    </contour>
  </outline>
</glyph>
<glyph name="yen" format="2">
  <advance width="633"/>
  <unicode hex="00A5"/>
  <outline>
    <contour>
      <point x="224" y="0" type="line"/>
      <point x="300" y="0" type="line"/>
      <point x="328" y="134" type="line"/>
      <point x="502" y="134" type="line"/>
      <point x="513" y="188" type="line"/>
      <point x="340" y="188" type="line"/>
      <point x="356" y="263" type="line"/>
      <point x="530" y="263" type="line"/>
      <point x="540" y="317" type="line"/>
      <point x="389" y="317" type="line"/>
      <point x="717" y="700" type="line"/>
      <point x="627" y="700" type="line"/>
      <point x="334" y="353" type="line"/>
      <point x="187" y="700" type="line"/>
      <point x="107" y="700" type="line"/>
      <point x="272" y="317" type="line"/>
      <point x="119" y="317" type="line"/>
      <point x="109" y="263" type="line"/>
      <point x="280" y="263" type="line"/>
      <point x="264" y="188" type="line"/>
      <point x="92" y="188" type="line"/>
      <point x="81" y="134" type="line"/>
      <point x="252" y="134" type="line"/>
    </contour>
  </outline>
</glyph>
<glyph name="uni00A6" format="2">
  <advance width="278"/>
  <unicode hex="00A6"/>
  <outline>
    <contour>
      <point x="118" y="287" type="line"/>
      <point x="186" y="287" type="line"/>
      <point x="274" y="700" type="line"/>
      <point x="206" y="700" type="line"/>
    </contour>
    <contour>
      <point x="13" y="-209" type="line"/>
      <point x="81" y="-209" type="line"/>
      <point x="169" y="204" type="line"/>
      <point x="101" y="204" type="line"/>
    </contour>
  </outline>
</glyph>
<glyph name="section" format="2">
  <advance width="556"/>
  <unicode hex="00A7"/>
  <outline>
    <contour>
      <point x="241" y="-50" type="curve" smooth="yes"/>
      <point x="337" y="-50"/>
      <point x="403" y="9"/>
      <point x="403" y="95" type="curve" smooth="yes"/>
      <point x="403" y="128"/>
      <point x="392" y="156"/>
      <point x="368" y="179" type="curve"/>
      <point x="453" y="195"/>
      <point x="506" y="250"/>
      <point x="506" y="327" type="curve" smooth="yes"/>
      <point x="506" y="380"/>
      <point x="477" y="416"/>
      <point x="403" y="454" type="curve" smooth="yes"/>
      <point x="309" y="501" type="line" smooth="yes"/>
      <point x="271" y="520"/>
      <point x="254" y="543"/>
      <point x="254" y="574" type="curve" smooth="yes"/>
      <point x="254" y="623"/>
      <point x="291" y="655"/>
      <point x="347" y="655" type="curve" smooth="yes"/>
      <point x="393" y="655"/>
      <point x="442" y="635"/>
      <point x="496" y="594" type="curve"/>
      <point x="535" y="643" type="line"/>
      <point x="482" y="686"/>
      <point x="414" y="711"/>
      <point x="352" y="711" type="curve" smooth="yes"/>
      <point x="256" y="711"/>
      <point x="190" y="652"/>
      <point x="190" y="566" type="curve" smooth="yes"/>
      <point x="190" y="532"/>
      <point x="202" y="503"/>
      <point x="226" y="480" type="curve"/>
      <point x="141" y="464"/>
      <point x="87" y="409"/>
      <point x="87" y="335" type="curve" smooth="yes"/>
      <point x="87" y="281"/>
      <point x="116" y="245"/>
      <point x="190" y="207" type="curve" smooth="yes"/>
      <point x="284" y="160" type="line" smooth="yes"/>
      <point x="321" y="141"/>
      <point x="338" y="118"/>
      <point x="338" y="87" type="curve" smooth="yes"/>
      <point x="338" y="38"/>
      <point x="302" y="6"/>
      <point x="246" y="6" type="curve" smooth="yes"/>
      <point x="199" y="6"/>
      <point x="150" y="26"/>
      <point x="96" y="67" type="curve"/>
      <point x="57" y="18" type="line"/>
      <point x="110" y="-25"/>
      <point x="177" y="-50"/>
    </contour>
    <contour>
      <point x="316" y="216" type="curve"/>
      <point x="218" y="265" type="line" smooth="yes"/>
      <point x="172" y="288"/>
      <point x="151" y="314"/>
      <point x="151" y="349" type="curve" smooth="yes"/>
      <point x="151" y="403"/>
      <point x="205" y="441"/>
      <point x="280" y="443" type="curve"/>
      <point x="375" y="397" type="line" smooth="yes"/>
      <point x="421" y="373"/>
      <point x="442" y="347"/>
      <point x="442" y="313" type="curve" smooth="yes"/>
      <point x="442" y="258"/>
      <point x="390" y="219"/>
    </contour>
  </outline>
</glyph>
<glyph name="dieresis" format="2">
  <advance width="600"/>
  <unicode hex="00A8"/>
  <outline>
    <contour>
      <point x="280" y="609" type="curve" smooth="yes"/>
      <point x="312" y="609"/>
      <point x="337" y="634"/>
      <point x="337" y="663" type="curve" smooth="yes"/>
      <point x="337" y="690"/>
      <point x="316" y="711"/>
      <point x="289" y="711" type="curve" smooth="yes"/>
      <point x="258" y="711"/>
      <point x="232" y="685"/>
      <point x="232" y="656" type="curve" smooth="yes"/>
      <point x="232" y="629"/>
      <point x="253" y="609"/>
    </contour>
    <contour>
      <point x="484" y="609" type="curve" smooth="yes"/>
      <point x="516" y="609"/>
      <point x="541" y="634"/>
      <point x="541" y="663" type="curve" smooth="yes"/>
      <point x="541" y="690"/>
      <point x="520" y="711"/>
      <point x="493" y="711" type="curve" smooth="yes"/>
      <point x="462" y="711"/>
      <point x="436" y="685"/>
      <point x="436" y="656" type="curve" smooth="yes"/>
      <point x="436" y="629"/>
      <point x="457" y="609"/>
    </contour>
  </outline>
</glyph>
<glyph name="ordfeminine" format="2">
  <advance width="400"/>
  <unicode hex="00AA"/>
  <outline>
    <contour>
      <point x="203" y="319" type="curve" smooth="yes"/>
      <point x="243" y="319"/>
      <point x="279" y="330"/>
      <point x="313" y="355" type="curve"/>
      <point x="307" y="325" type="line"/>
      <point x="366" y="325" type="line"/>
      <point x="417" y="562" type="line" smooth="yes"/>
      <point x="436" y="653"/>
      <point x="385" y="709"/>
      <point x="280" y="709" type="curve" smooth="yes"/>
      <point x="238" y="709"/>
      <point x="193" y="699"/>
      <point x="141" y="677" type="curve"/>
      <point x="157" y="629" type="line"/>
      <point x="206" y="649"/>
      <point x="239" y="657"/>
      <point x="269" y="657" type="curve" smooth="yes"/>
      <point x="342" y="657"/>
      <point x="372" y="624"/>
      <point x="357" y="559" type="curve" smooth="yes"/>
      <point x="348" y="517" type="line"/>
      <point x="315" y="537"/>
      <point x="272" y="549"/>
      <point x="230" y="549" type="curve" smooth="yes"/>
      <point x="137" y="549"/>
      <point x="75" y="500"/>
      <point x="75" y="425" type="curve" smooth="yes"/>
      <point x="75" y="361"/>
      <point x="126" y="319"/>
    </contour>
    <contour>
      <point x="221" y="366" type="curve" smooth="yes"/>
      <point x="166" y="366"/>
      <point x="134" y="390"/>
      <point x="134" y="431" type="curve" smooth="yes"/>
      <point x="134" y="474"/>
      <point x="174" y="504"/>
      <point x="231" y="504" type="curve" smooth="yes"/>
      <point x="274" y="504"/>
      <point x="309" y="493"/>
      <point x="338" y="471" type="curve"/>
      <point x="324" y="403" type="line"/>
      <point x="293" y="378"/>
      <point x="259" y="366"/>
    </contour>
  </outline>
</glyph>
<glyph name="uni00AC" format="2">
  <advance width="601"/>
  <unicode hex="00AC"/>
  <outline>
    <contour>
      <point x="409" y="0" type="line"/>
      <point x="473" y="0" type="line"/>
      <point x="540" y="314" type="line"/>
      <point x="91" y="314" type="line"/>
      <point x="77" y="254" type="line"/>
      <point x="463" y="254" type="line"/>
    </contour>
  </outline>
</glyph>
<glyph name="registered" format="2">
  <advance width="486"/>
  <unicode hex="00AE"/>
  <outline>
    <contour>
      <point x="278" y="312" type="curve" smooth="yes"/>
      <point x="391" y="312"/>
      <point x="488" y="416"/>
      <point x="488" y="538" type="curve"/>
      <point x="488" y="640"/>
      <point x="418" y="714"/>
      <point x="321" y="714" type="curve" smooth="yes"/>
      <point x="208" y="714"/>
      <point x="111" y="610"/>
      <point x="111" y="488" type="curve"/>
      <point x="111" y="386"/>
      <point x="181" y="312"/>
    </contour>
    <contour>
      <point x="282" y="346" type="curve" smooth="yes"/>
      <point x="202" y="346"/>
      <point x="147" y="404"/>
      <point x="147" y="490" type="curve"/>
      <point x="147" y="594"/>
      <point x="224" y="680"/>
      <point x="317" y="680" type="curve" smooth="yes"/>
      <point x="398" y="680"/>
      <point x="452" y="622"/>
      <point x="452" y="536" type="curve"/>
      <point x="452" y="432"/>
      <point x="376" y="346"/>
    </contour>
    <contour>
      <point x="216" y="420" type="line"/>
      <point x="248" y="420" type="line"/>
      <point x="263" y="491" type="line"/>
      <point x="296" y="491" type="line"/>
      <point x="321" y="420" type="line"/>
      <point x="355" y="420" type="line"/>
      <point x="330" y="495" type="line"/>
      <point x="356" y="505"/>
      <point x="373" y="529"/>
      <point x="373" y="555" type="curve" smooth="yes"/>
      <point x="373" y="589"/>
      <point x="354" y="608"/>
      <point x="320" y="608" type="curve" smooth="yes"/>
      <point x="256" y="608" type="line"/>
    </contour>
    <contour>
      <point x="269" y="517" type="line"/>
      <point x="283" y="580" type="line"/>
      <point x="313" y="580" type="line" smooth="yes"/>
      <point x="332" y="580"/>
      <point x="340" y="571"/>
      <point x="340" y="552" type="curve" smooth="yes"/>
      <point x="340" y="531"/>
      <point x="327" y="517"/>
      <point x="306" y="517" type="curve" smooth="yes"/>
    </contour>
  </outline>
</glyph>
<glyph name="twosuperior" format="2">
  <advance width="286"/>
  <unicode hex="00B2"/>
  <outline>
    <contour>
      <point x="48" y="350" type="line"/>
      <point x="286" y="350" type="line"/>
      <point x="295" y="393" type="line"/>
      <point x="126" y="393" type="line"/>
      <point x="267" y="506" type="line" smooth="yes"/>
      <point x="316" y="544"/>
      <point x="335" y="576"/>
      <point x="335" y="617" type="curve" smooth="yes"/>
      <point x="335" y="669"/>
      <point x="291" y="705"/>
      <point x="229" y="705" type="curve" smooth="yes"/>
      <point x="189" y="705"/>
      <point x="148" y="689"/>
      <point x="105" y="659" type="curve"/>
      <point x="127" y="622" type="line"/>
      <point x="164" y="649"/>
      <point x="191" y="660"/>
      <point x="220" y="660" type="curve" smooth="yes"/>
      <point x="258" y="660"/>
      <point x="284" y="639"/>
      <point x="284" y="608" type="curve" smooth="yes"/>
      <point x="284" y="581"/>
      <point x="268" y="556"/>
      <point x="234" y="530" type="curve" smooth="yes"/>
      <point x="56" y="387" type="line"/>
    </contour>
  </outline>
</glyph>
<glyph name="threesuperior" format="2">
  <advance width="306"/>
  <unicode hex="00B3"/>
  <outline>
    <contour>
      <point x="184" y="345" type="curve" smooth="yes"/>
      <point x="260" y="345"/>
      <point x="319" y="393"/>
      <point x="319" y="453" type="curve" smooth="yes"/>
      <point x="319" y="489"/>
      <point x="294" y="515"/>
      <point x="253" y="526" type="curve"/>
      <point x="305" y="537"/>
      <point x="343" y="572"/>
      <point x="343" y="614" type="curve" smooth="yes"/>
      <point x="343" y="667"/>
      <point x="296" y="705"/>
      <point x="233" y="705" type="curve" smooth="yes"/>
      <point x="193" y="705"/>
      <point x="151" y="692"/>
      <point x="110" y="666" type="curve"/>
      <point x="132" y="627" type="line"/>
      <point x="170" y="649"/>
      <point x="198" y="659"/>
      <point x="226" y="659" type="curve" smooth="yes"/>
      <point x="264" y="659"/>
      <point x="291" y="637"/>
      <point x="291" y="606" type="curve" smooth="yes"/>
      <point x="291" y="572"/>
      <point x="255" y="546"/>
      <point x="206" y="546" type="curve" smooth="yes"/>
      <point x="178" y="546" type="line"/>
      <point x="170" y="505" type="line"/>
      <point x="201" y="505" type="line" smooth="yes"/>
      <point x="243" y="505"/>
      <point x="270" y="484"/>
      <point x="270" y="450" type="curve" smooth="yes"/>
      <point x="270" y="416"/>
      <point x="233" y="390"/>
      <point x="187" y="390" type="curve" smooth="yes"/>
      <point x="150" y="390"/>
      <point x="115" y="406"/>
      <point x="88" y="434" type="curve"/>
      <point x="54" y="399" type="line"/>
      <point x="86" y="362"/>
      <point x="128" y="345"/>
    </contour>
  </outline>
</glyph>
<glyph name="acute" format="2">
  <advance width="600"/>
  <unicode hex="00B4"/>
  <outline>
    <contour>
      <point x="319" y="584" type="line"/>
      <point x="389" y="584" type="line"/>
      <point x="555" y="706" type="line"/>
      <point x="454" y="706" type="line"/>
    </contour>
  </outline>
</glyph>
<glyph name="Oslash" format="2">
  <advance width="795"/>
  <unicode hex="00D8"/>
  <outline>
    <contour>
      <point x="392" y="-11" type="curve" smooth="yes"/>
      <point x="592" y="-11"/>
      <point x="759" y="167"/>
      <point x="759" y="380" type="curve" smooth="yes"/>
      <point x="759" y="459"/>
      <point x="735" y="530"/>
      <point x="694" y="586" type="curve"/>
      <point x="814" y="705" type="line"/>
      <point x="736" y="705" type="line"/>
      <point x="657" y="627" type="line"/>
      <point x="602" y="680"/>
      <point x="527" y="711"/>
      <point x="442" y="711" type="curve" smooth="yes"/>
      <point x="242" y="711"/>
      <point x="75" y="533"/>
      <point x="75" y="320" type="curve" smooth="yes"/>
      <point x="75" y="241"/>
      <point x="99" y="169"/>
      <point x="141" y="113" type="curve"/>
      <point x="22" y="-5" type="line"/>
      <point x="99" y="-5" type="line"/>
      <point x="177" y="73" type="line"/>
      <point x="233" y="20"/>
      <point x="308" y="-11"/>
    </contour>
    <contour>
      <point x="196" y="168" type="line"/>
      <point x="167" y="211"/>
      <point x="151" y="265"/>
      <point x="151" y="324" type="curve" smooth="yes"/>
      <point x="151" y="497"/>
      <point x="280" y="641"/>
      <point x="438" y="641" type="curve" smooth="yes"/>
      <point x="504" y="641"/>
      <point x="561" y="616"/>
      <point x="604" y="574" type="curve"/>
    </contour>
    <contour>
      <point x="397" y="59" type="curve" smooth="yes"/>
      <point x="331" y="59"/>
      <point x="273" y="84"/>
      <point x="230" y="125" type="curve"/>
      <point x="639" y="532" type="line"/>
      <point x="667" y="489"/>
      <point x="683" y="435"/>
      <point x="683" y="376" type="curve" smooth="yes"/>
      <point x="683" y="202"/>
      <point x="554" y="59"/>
    </contour>
  </outline>
</glyph>
<glyph name="ae" format="2">
  <advance width="851"/>
  <unicode hex="00E6"/>
  <outline>
    <contour>
      <point x="201" y="-7" type="curve" smooth="yes"/>
      <point x="275" y="-7"/>
      <point x="340" y="21"/>
      <point x="401" y="80" type="curve"/>
      <point x="440" y="24"/>
      <point x="505" y="-9"/>
      <point x="584" y="-9" type="curve" smooth="yes"/>
      <point x="644" y="-9"/>
      <point x="697" y="7"/>
      <point x="753" y="45" type="curve"/>
      <point x="715" y="97" type="line"/>
      <point x="682" y="70"/>
      <point x="633" y="54"/>
      <point x="587" y="54" type="curve" smooth="yes"/>
      <point x="494" y="54"/>
      <point x="427" y="131"/>
      <point x="431" y="228" type="curve"/>
      <point x="805" y="228" type="line"/>
      <point x="807" y="247"/>
      <point x="808" y="263"/>
      <point x="808" y="281" type="curve" smooth="yes"/>
      <point x="808" y="406"/>
      <point x="727" y="496"/>
      <point x="613" y="496" type="curve" smooth="yes"/>
      <point x="543" y="496"/>
      <point x="479" y="465"/>
      <point x="432" y="410" type="curve"/>
      <point x="411" y="464"/>
      <point x="357" y="495"/>
      <point x="276" y="495" type="curve" smooth="yes"/>
      <point x="223" y="495"/>
      <point x="168" y="482"/>
      <point x="102" y="455" type="curve"/>
      <point x="122" y="398" type="line"/>
      <point x="179" y="424"/>
      <point x="222" y="435"/>
      <point x="262" y="435" type="curve" smooth="yes"/>
      <point x="352" y="435"/>
      <point x="388" y="390"/>
      <point x="372" y="301" type="curve" smooth="yes"/>
      <point x="364" y="251" type="line"/>
      <point x="324" y="274"/>
      <point x="274" y="287"/>
      <point x="220" y="287" type="curve" smooth="yes"/>
      <point x="110" y="287"/>
      <point x="36" y="224"/>
      <point x="36" y="131" type="curve" smooth="yes"/>
      <point x="36" y="48"/>
      <point x="102" y="-7"/>
    </contour>
    <contour>
      <point x="438" y="280" type="line"/>
      <point x="460" y="369"/>
      <point x="527" y="432"/>
      <point x="608" y="432" type="curve" smooth="yes"/>
      <point x="684" y="432"/>
      <point x="741" y="366"/>
      <point x="740" y="280" type="curve"/>
    </contour>
    <contour>
      <point x="218" y="48" type="curve" smooth="yes"/>
      <point x="146" y="48"/>
      <point x="104" y="81"/>
      <point x="104" y="138" type="curve" smooth="yes"/>
      <point x="104" y="194"/>
      <point x="155" y="233"/>
      <point x="227" y="233" type="curve" smooth="yes"/>
      <point x="281" y="233"/>
      <point x="324" y="222"/>
      <point x="361" y="198" type="curve"/>
      <point x="363" y="170"/>
      <point x="369" y="144"/>
      <point x="379" y="120" type="curve"/>
      <point x="327" y="72"/>
      <point x="274" y="48"/>
    </contour>
  </outline>
</glyph>
<glyph name="eth" format="2">
  <advance width="578"/>
  <unicode hex="00F0"/>
  <outline>
    <contour>
      <point x="260" y="-10" type="curve" smooth="yes"/>
      <point x="425" y="-10"/>
      <point x="542" y="152"/>
      <point x="542" y="385" type="curve" smooth="yes"/>
      <point x="542" y="475"/>
      <point x="521" y="552"/>
      <point x="480" y="615" type="curve"/>
      <point x="582" y="666" type="line"/>
      <point x="565" y="711" type="line"/>
      <point x="449" y="655" type="line"/>
      <point x="420" y="689"/>
      <point x="384" y="716"/>
      <point x="341" y="737" type="curve"/>
      <point x="302" y="687" type="line"/>
      <point x="336" y="672"/>
      <point x="365" y="651"/>
      <point x="390" y="626" type="curve"/>
      <point x="298" y="581" type="line"/>
      <point x="316" y="535" type="line"/>
      <point x="422" y="587" type="line"/>
      <point x="464" y="524"/>
      <point x="484" y="443"/>
      <point x="479" y="350" type="curve"/>
      <point x="458" y="425"/>
      <point x="388" y="478"/>
      <point x="297" y="478" type="curve" smooth="yes"/>
      <point x="160" y="478"/>
      <point x="52" y="360"/>
      <point x="52" y="208" type="curve" smooth="yes"/>
      <point x="52" y="80"/>
      <point x="138" y="-10"/>
    </contour>
    <contour>
      <point x="264" y="54" type="curve" smooth="yes"/>
      <point x="180" y="54"/>
      <point x="120" y="119"/>
      <point x="120" y="213" type="curve" smooth="yes"/>
      <point x="120" y="324"/>
      <point x="204" y="419"/>
      <point x="304" y="419" type="curve" smooth="yes"/>
      <point x="388" y="419"/>
      <point x="450" y="352"/>
      <point x="450" y="261" type="curve" smooth="yes"/>
      <point x="450" y="151"/>
      <point x="364" y="54"/>
    </contour>
  </outline>
</glyph>
<glyph name="oslash" format="2">
  <advance width="570"/>
  <unicode hex="00F8"/>
  <outline>
    <contour>
      <point x="261" y="-10" type="curve" smooth="yes"/>
      <point x="402" y="-10"/>
      <point x="518" y="116"/>
      <point x="518" y="269" type="curve" smooth="yes"/>
      <point x="518" y="322"/>
      <point x="505" y="369"/>
      <point x="481" y="406" type="curve"/>
      <point x="568" y="493" type="line"/>
      <point x="502" y="493" type="line"/>
      <point x="451" y="442" type="line"/>
      <point x="414" y="477"/>
      <point x="365" y="497"/>
      <point x="307" y="497" type="curve" smooth="yes"/>
      <point x="166" y="497"/>
      <point x="51" y="372"/>
      <point x="51" y="218" type="curve" smooth="yes"/>
      <point x="51" y="165"/>
      <point x="65" y="118"/>
      <point x="89" y="81" type="curve"/>
      <point x="3" y="-5" type="line"/>
      <point x="68" y="-5" type="line"/>
      <point x="119" y="46" type="line"/>
      <point x="155" y="10"/>
      <point x="204" y="-10"/>
    </contour>
    <contour>
      <point x="141" y="132" type="line"/>
      <point x="129" y="157"/>
      <point x="122" y="186"/>
      <point x="122" y="219" type="curve" smooth="yes"/>
      <point x="122" y="337"/>
      <point x="203" y="433"/>
      <point x="304" y="433" type="curve" smooth="yes"/>
      <point x="344" y="433"/>
      <point x="377" y="418"/>
      <point x="402" y="393" type="curve"/>
    </contour>
    <contour>
      <point x="265" y="55" type="curve" smooth="yes"/>
      <point x="226" y="55"/>
      <point x="192" y="69"/>
      <point x="168" y="94" type="curve"/>
      <point x="428" y="354" type="line"/>
      <point x="440" y="330"/>
      <point x="446" y="301"/>
      <point x="446" y="269" type="curve" smooth="yes"/>
      <point x="446" y="150"/>
      <point x="366" y="55"/>
    </contour>
  </outline>
</glyph>
<glyph name="Aogonek" format="2">
  <advance width="647"/>
  <unicode hex="0104"/>
  <outline>
    <contour>
      <point x="499" y="-232" type="curve" smooth="yes"/>
      <point x="523" y="-232"/>
      <point x="547" y="-227"/>
      <point x="565" y="-218" type="curve"/>
      <point x="561" y="-178" type="line"/>
      <point x="548" y="-183"/>
      <point x="529" y="-187"/>
      <point x="515" y="-187" type="curve" smooth="yes"/>
      <point x="480" y="-187"/>
      <point x="455" y="-168"/>
      <point x="455" y="-139" type="curve" smooth="yes"/>
      <point x="455" y="-92"/>
      <point x="496" y="-48"/>
      <point x="585" y="0" type="curve"/>
      <point x="463" y="700" type="line"/>
      <point x="372" y="700" type="line"/>
      <point x="-44" y="0" type="line"/>
      <point x="41" y="0" type="line"/>
      <point x="168" y="220" type="line"/>
      <point x="472" y="220" type="line"/>
      <point x="508" y="0" type="line"/>
      <point x="526" y="0" type="line"/>
      <point x="444" y="-48"/>
      <point x="404" y="-99"/>
      <point x="404" y="-154" type="curve" smooth="yes"/>
      <point x="404" y="-201"/>
      <point x="442" y="-232"/>
    </contour>
    <contour>
      <point x="203" y="281" type="line"/>
      <point x="404" y="631" type="line"/>
      <point x="462" y="281" type="line"/>
    </contour>
  </outline>
</glyph>
<glyph name="Dcroat" format="2">
  <advance width="747"/>
  <unicode hex="0110"/>
  <outline>
    <contour>
      <point x="64" y="0" type="line"/>
      <point x="321" y="0" type="line" smooth="yes"/>
      <point x="536" y="0"/>
      <point x="711" y="176"/>
      <point x="711" y="391" type="curve" smooth="yes"/>
      <point x="711" y="576"/>
      <point x="591" y="700"/>
      <point x="412" y="700" type="curve" smooth="yes"/>
      <point x="213" y="700" type="line"/>
      <point x="146" y="383" type="line"/>
      <point x="51" y="383" type="line"/>
      <point x="38" y="322" type="line"/>
      <point x="133" y="322" type="line"/>
    </contour>
    <contour>
      <point x="154" y="69" type="line"/>
      <point x="208" y="322" type="line"/>
      <point x="371" y="322" type="line"/>
      <point x="384" y="383" type="line"/>
      <point x="220" y="383" type="line"/>
      <point x="273" y="631" type="line"/>
      <point x="409" y="631" type="line" smooth="yes"/>
      <point x="543" y="631"/>
      <point x="633" y="534"/>
      <point x="633" y="389" type="curve" smooth="yes"/>
      <point x="633" y="211"/>
      <point x="499" y="69"/>
      <point x="332" y="69" type="curve" smooth="yes"/>
    </contour>
  </outline>
</glyph>
<glyph name="dcroat" format="2">
  <advance width="576"/>
  <unicode hex="0111"/>
  <outline>
    <contour>
      <point x="245" y="-7" type="curve" smooth="yes"/>
      <point x="297" y="-7"/>
      <point x="343" y="12"/>
      <point x="381" y="46" type="curve"/>
      <point x="371" y="0" type="line"/>
      <point x="442" y="0" type="line"/>
      <point x="561" y="573" type="line"/>
      <point x="628" y="573" type="line"/>
      <point x="640" y="623" type="line"/>
      <point x="572" y="623" type="line"/>
      <point x="594" y="730" type="line"/>
      <point x="520" y="715" type="line"/>
      <point x="501" y="623" type="line"/>
      <point x="366" y="623" type="line"/>
      <point x="354" y="573" type="line"/>
      <point x="490" y="573" type="line"/>
      <point x="458" y="415" type="line"/>
      <point x="423" y="465"/>
      <point x="369" y="493"/>
      <point x="303" y="493" type="curve" smooth="yes"/>
      <point x="164" y="493"/>
      <point x="51" y="367"/>
      <point x="51" y="214" type="curve" smooth="yes"/>
      <point x="51" y="88"/>
      <point x="133" y="-7"/>
    </contour>
    <contour>
      <point x="271" y="56" type="curve" smooth="yes"/>
      <point x="183" y="56"/>
      <point x="122" y="123"/>
      <point x="122" y="220" type="curve" smooth="yes"/>
      <point x="122" y="337"/>
      <point x="206" y="429"/>
      <point x="312" y="429" type="curve" smooth="yes"/>
      <point x="368" y="429"/>
      <point x="419" y="400"/>
      <point x="445" y="356" type="curve"/>
      <point x="393" y="104" type="line"/>
      <point x="358" y="73"/>
      <point x="316" y="56"/>
    </contour>
  </outline>
</glyph>
<glyph name="Eogonek" format="2">
  <advance width="607"/>
  <unicode hex="0118"/>
  <outline>
    <contour>
      <point x="419" y="-232" type="curve" smooth="yes"/>
      <point x="443" y="-232"/>
      <point x="467" y="-227"/>
      <point x="485" y="-218" type="curve"/>
      <point x="481" y="-178" type="line"/>
      <point x="468" y="-183"/>
      <point x="449" y="-187"/>
      <point x="435" y="-187" type="curve" smooth="yes"/>
      <point x="400" y="-187"/>
      <point x="375" y="-168"/>
      <point x="375" y="-139" type="curve" smooth="yes"/>
      <point x="375" y="-92"/>
      <point x="417" y="-48"/>
      <point x="506" y="0" type="curve"/>
      <point x="520" y="67" type="line"/>
      <point x="123" y="67" type="line"/>
      <point x="177" y="320" type="line"/>
      <point x="450" y="320" type="line"/>
      <point x="464" y="387" type="line"/>
      <point x="191" y="387" type="line"/>
      <point x="244" y="633" type="line"/>
      <point x="636" y="633" type="line"/>
      <point x="651" y="700" type="line"/>
      <point x="183" y="700" type="line"/>
      <point x="34" y="0" type="line"/>
      <point x="446" y="0" type="line"/>
      <point x="364" y="-48"/>
      <point x="324" y="-99"/>
      <point x="324" y="-154" type="curve" smooth="yes"/>
      <point x="324" y="-201"/>
      <point x="362" y="-232"/>
    </contour>
  </outline>
</glyph>
<glyph name="eogonek" format="2">
  <advance width="545"/>
  <unicode hex="0119"/>
  <outline>
    <contour>
      <point x="260" y="-232" type="curve" smooth="yes"/>
      <point x="284" y="-232"/>
      <point x="308" y="-227"/>
      <point x="326" y="-218" type="curve"/>
      <point x="322" y="-178" type="line"/>
      <point x="309" y="-183"/>
      <point x="290" y="-187"/>
      <point x="276" y="-187" type="curve" smooth="yes"/>
      <point x="241" y="-187"/>
      <point x="216" y="-168"/>
      <point x="216" y="-139" type="curve" smooth="yes"/>
      <point x="216" y="-92"/>
      <point x="258" y="-48"/>
      <point x="347" y="0" type="curve"/>
      <point x="379" y="9"/>
      <point x="410" y="23"/>
      <point x="443" y="45" type="curve"/>
      <point x="405" y="97" type="line"/>
      <point x="371" y="70"/>
      <point x="323" y="54"/>
      <point x="276" y="54" type="curve" smooth="yes"/>
      <point x="184" y="54"/>
      <point x="117" y="133"/>
      <point x="121" y="228" type="curve"/>
      <point x="495" y="228" type="line"/>
      <point x="497" y="247"/>
      <point x="498" y="263"/>
      <point x="498" y="281" type="curve" smooth="yes"/>
      <point x="498" y="406"/>
      <point x="416" y="496"/>
      <point x="302" y="496" type="curve" smooth="yes"/>
      <point x="163" y="496"/>
      <point x="51" y="370"/>
      <point x="51" y="216" type="curve" smooth="yes"/>
      <point x="51" y="83"/>
      <point x="142" y="-9"/>
      <point x="272" y="-9" type="curve"/>
      <point x="201" y="-55"/>
      <point x="165" y="-102"/>
      <point x="165" y="-154" type="curve" smooth="yes"/>
      <point x="165" y="-201"/>
      <point x="203" y="-232"/>
    </contour>
    <contour>
      <point x="297" y="432" type="curve" smooth="yes"/>
      <point x="374" y="432"/>
      <point x="432" y="365"/>
      <point x="430" y="280" type="curve"/>
      <point x="128" y="280" type="line"/>
      <point x="150" y="369"/>
      <point x="216" y="432"/>
    </contour>
  </outline>
</glyph>
<glyph name="hcircumflex" format="2">
  <advance width="542"/>
  <unicode hex="0125"/>
  <outline>
    <contour>
      <point x="21" y="0" type="line"/>
      <point x="93" y="0" type="line"/>
      <point x="169" y="362" type="line"/>
      <point x="203" y="408"/>
      <point x="253" y="435"/>
      <point x="306" y="435" type="curve" smooth="yes"/>
      <point x="387" y="435"/>
      <point x="428" y="375"/>
      <point x="408" y="285" type="curve"/>
      <point x="346" y="0" type="line"/>
      <point x="418" y="0" type="line"/>
      <point x="482" y="300" type="line" smooth="yes"/>
      <point x="507" y="412"/>
      <point x="446" y="495"/>
      <point x="337" y="495" type="curve"/>
      <point x="277" y="495"/>
      <point x="224" y="467"/>
      <point x="179" y="412" type="curve"/>
      <point x="245" y="727" type="line"/>
      <point x="173" y="727" type="line"/>
    </contour>
    <component base="circumflex" xOffset="-160" yOffset="212"/>
  </outline>
</glyph>
<glyph name="Hbar" format="2">
  <advance width="735"/>
  <unicode hex="0126"/>
  <outline>
    <contour>
      <point x="39" y="0" type="line"/>
      <point x="114" y="0" type="line"/>
      <point x="182" y="319" type="line"/>
      <point x="577" y="319" type="line"/>
      <point x="509" y="0" type="line"/>
      <point x="584" y="0" type="line"/>
      <point x="695" y="521" type="line"/>
      <point x="778" y="521" type="line"/>
      <point x="792" y="582" type="line"/>
      <point x="708" y="582" type="line"/>
      <point x="733" y="700" type="line"/>
      <point x="658" y="700" type="line"/>
      <point x="633" y="582" type="line"/>
      <point x="238" y="582" type="line"/>
      <point x="263" y="700" type="line"/>
      <point x="188" y="700" type="line"/>
      <point x="163" y="582" type="line"/>
      <point x="80" y="582" type="line"/>
      <point x="66" y="521" type="line"/>
      <point x="150" y="521" type="line"/>
    </contour>
    <contour>
      <point x="196" y="386" type="line"/>
      <point x="225" y="521" type="line"/>
      <point x="620" y="521" type="line"/>
      <point x="591" y="386" type="line"/>
    </contour>
  </outline>
</glyph>
<glyph name="Lslash" format="2">
  <advance width="616"/>
  <unicode hex="0141"/>
  <outline>
    <contour>
      <point x="52" y="0" type="line"/>
      <point x="514" y="0" type="line"/>
      <point x="528" y="68" type="line"/>
      <point x="141" y="68" type="line"/>
      <point x="191" y="302" type="line"/>
      <point x="395" y="439" type="line"/>
      <point x="410" y="515" type="line"/>
      <point x="207" y="378" type="line"/>
      <point x="276" y="700" type="line"/>
      <point x="201" y="700" type="line"/>
      <point x="120" y="319" type="line"/>
      <point x="12" y="246" type="line"/>
      <point x="-4" y="170" type="line"/>
      <point x="104" y="243" type="line"/>
    </contour>
  </outline>
</glyph>
<glyph name="lslash" format="2">
  <advance width="257"/>
  <unicode hex="0142"/>
  <outline>
    <contour>
      <point x="46" y="0" type="line"/>
      <point x="118" y="0" type="line"/>
      <point x="193" y="359" type="line"/>
      <point x="302" y="436" type="line"/>
      <point x="319" y="513" type="line"/>
      <point x="209" y="436" type="line"/>
      <point x="270" y="730" type="line"/>
      <point x="196" y="715" type="line"/>
      <point x="125" y="378" type="line"/>
      <point x="21" y="305" type="line"/>
      <point x="4" y="227" type="line"/>
      <point x="109" y="301" type="line"/>
    </contour>
  </outline>
</glyph>
<glyph name="eng" format="2">
  <advance width="542"/>
  <unicode hex="014B"/>
  <outline>
    <contour>
      <point x="262" y="-212" type="curve" smooth="yes"/>
      <point x="333" y="-212"/>
      <point x="383" y="-168"/>
      <point x="399" y="-92" type="curve" smooth="yes"/>
      <point x="483" y="303" type="line" smooth="yes"/>
      <point x="508" y="414"/>
      <point x="447" y="495"/>
      <point x="337" y="495" type="curve" smooth="yes"/>
      <point x="279" y="495"/>
      <point x="227" y="469"/>
      <point x="184" y="417" type="curve"/>
      <point x="199" y="488" type="line"/>
      <point x="128" y="488" type="line"/>
      <point x="21" y="0" type="line"/>
      <point x="93" y="0" type="line"/>
      <point x="173" y="367" type="line"/>
      <point x="210" y="411"/>
      <point x="256" y="435"/>
      <point x="306" y="435" type="curve" smooth="yes"/>
      <point x="386" y="435"/>
      <point x="427" y="375"/>
      <point x="408" y="286" type="curve" smooth="yes"/>
      <point x="329" y="-85" type="line" smooth="yes"/>
      <point x="320" y="-128"/>
      <point x="301" y="-146"/>
      <point x="264" y="-146" type="curve" smooth="yes"/>
      <point x="247" y="-146"/>
      <point x="235" y="-144"/>
      <point x="224" y="-140" type="curve"/>
      <point x="211" y="-204" type="line"/>
      <point x="224" y="-209"/>
      <point x="244" y="-212"/>
    </contour>
  </outline>
</glyph>
<glyph name="Scedilla" format="2">
  <advance width="612"/>
  <unicode hex="015E"/>
  <outline>
    <contour>
      <point x="249" y="-239" type="curve" smooth="yes"/>
      <point x="315" y="-239"/>
      <point x="365" y="-195"/>
      <point x="365" y="-138" type="curve" smooth="yes"/>
      <point x="365" y="-97"/>
      <point x="335" y="-71"/>
      <point x="284" y="-66" type="curve"/>
      <point x="309" y="-10" type="line"/>
      <point x="460" y="-10"/>
      <point x="566" y="79"/>
      <point x="566" y="209" type="curve" smooth="yes"/>
      <point x="566" y="295"/>
      <point x="511" y="347"/>
      <point x="385" y="382" type="curve" smooth="yes"/>
      <point x="280" y="408" type="line" smooth="yes"/>
      <point x="202" y="429"/>
      <point x="166" y="464"/>
      <point x="166" y="521" type="curve" smooth="yes"/>
      <point x="166" y="595"/>
      <point x="231" y="644"/>
      <point x="330" y="644" type="curve" smooth="yes"/>
      <point x="415" y="644"/>
      <point x="499" y="608"/>
      <point x="564" y="544" type="curve"/>
      <point x="612" y="599" type="line"/>
      <point x="539" y="670"/>
      <point x="439" y="709"/>
      <point x="333" y="709" type="curve" smooth="yes"/>
      <point x="188" y="709"/>
      <point x="92" y="630"/>
      <point x="92" y="511" type="curve" smooth="yes"/>
      <point x="92" y="427"/>
      <point x="145" y="369"/>
      <point x="249" y="342" type="curve" smooth="yes"/>
      <point x="356" y="315" type="line" smooth="yes"/>
      <point x="455" y="287"/>
      <point x="491" y="256"/>
      <point x="491" y="198" type="curve" smooth="yes"/>
      <point x="491" y="115"/>
      <point x="413" y="54"/>
      <point x="308" y="54" type="curve" smooth="yes"/>
      <point x="224" y="54"/>
      <point x="148" y="96"/>
      <point x="68" y="183" type="curve"/>
      <point x="17" y="131" type="line"/>
      <point x="88" y="49"/>
      <point x="173" y="2"/>
      <point x="267" y="-8" type="curve"/>
      <point x="227" y="-99" type="line"/>
      <point x="255" y="-99" type="line" smooth="yes"/>
      <point x="295" y="-99"/>
      <point x="319" y="-116"/>
      <point x="319" y="-144" type="curve" smooth="yes"/>
      <point x="319" y="-177"/>
      <point x="291" y="-199"/>
      <point x="247" y="-199" type="curve" smooth="yes"/>
      <point x="218" y="-199"/>
      <point x="194" y="-189"/>
      <point x="174" y="-167" type="curve"/>
      <point x="143" y="-197" type="line"/>
      <point x="165" y="-224"/>
      <point x="204" y="-239"/>
    </contour>
  </outline>
</glyph>
<glyph name="scedilla" format="2">
  <advance width="443"/>
  <unicode hex="015F"/>
  <outline>
    <contour>
      <point x="153" y="-239" type="curve" smooth="yes"/>
      <point x="219" y="-239"/>
      <point x="269" y="-195"/>
      <point x="269" y="-138" type="curve" smooth="yes"/>
      <point x="269" y="-97"/>
      <point x="239" y="-71"/>
      <point x="188" y="-66" type="curve"/>
      <point x="213" y="-10" type="line"/>
      <point x="314" y="-6"/>
      <point x="389" y="60"/>
      <point x="389" y="148" type="curve" smooth="yes"/>
      <point x="389" y="209"/>
      <point x="354" y="244"/>
      <point x="270" y="268" type="curve" smooth="yes"/>
      <point x="192" y="290" type="line" smooth="yes"/>
      <point x="141" y="304"/>
      <point x="122" y="324"/>
      <point x="122" y="360" type="curve" smooth="yes"/>
      <point x="122" y="406"/>
      <point x="163" y="437"/>
      <point x="225" y="437" type="curve" smooth="yes"/>
      <point x="273" y="437"/>
      <point x="328" y="414"/>
      <point x="376" y="374" type="curve"/>
      <point x="420" y="423" type="line"/>
      <point x="362" y="472"/>
      <point x="299" y="497"/>
      <point x="229" y="497" type="curve" smooth="yes"/>
      <point x="127" y="497"/>
      <point x="57" y="438"/>
      <point x="57" y="353" type="curve" smooth="yes"/>
      <point x="57" y="290"/>
      <point x="93" y="250"/>
      <point x="170" y="228" type="curve" smooth="yes"/>
      <point x="247" y="208" type="line" smooth="yes"/>
      <point x="301" y="192"/>
      <point x="321" y="173"/>
      <point x="321" y="139" type="curve" smooth="yes"/>
      <point x="321" y="89"/>
      <point x="270" y="49"/>
      <point x="205" y="49" type="curve" smooth="yes"/>
      <point x="146" y="49"/>
      <point x="105" y="67"/>
      <point x="47" y="122" type="curve"/>
      <point x="3" y="76" type="line"/>
      <point x="48" y="28"/>
      <point x="106" y="-1"/>
      <point x="171" y="-8" type="curve"/>
      <point x="131" y="-99" type="line"/>
      <point x="159" y="-99" type="line" smooth="yes"/>
      <point x="199" y="-99"/>
      <point x="223" y="-116"/>
      <point x="223" y="-144" type="curve" smooth="yes"/>
      <point x="223" y="-177"/>
      <point x="195" y="-199"/>
      <point x="151" y="-199" type="curve" smooth="yes"/>
      <point x="122" y="-199"/>
      <point x="98" y="-189"/>
      <point x="78" y="-167" type="curve"/>
      <point x="47" y="-197" type="line"/>
      <point x="69" y="-224"/>
      <point x="108" y="-239"/>
    </contour>
  </outline>
</glyph>
<glyph name="tcedilla" format="2">
  <advance width="371"/>
  <unicode hex="0163"/>
  <outline>
    <contour>
      <point x="159" y="-239" type="curve" smooth="yes"/>
      <point x="225" y="-239"/>
      <point x="275" y="-195"/>
      <point x="275" y="-138" type="curve" smooth="yes"/>
      <point x="275" y="-97"/>
      <point x="245" y="-71"/>
      <point x="194" y="-66" type="curve"/>
      <point x="219" y="-9" type="line"/>
      <point x="239" y="-9"/>
      <point x="263" y="-6"/>
      <point x="286" y="0" type="curve"/>
      <point x="300" y="65" type="line"/>
      <point x="272" y="57"/>
      <point x="260" y="55"/>
      <point x="244" y="55" type="curve" smooth="yes"/>
      <point x="183" y="55"/>
      <point x="165" y="77"/>
      <point x="177" y="133" type="curve" smooth="yes"/>
      <point x="241" y="428" type="line"/>
      <point x="378" y="428" type="line"/>
      <point x="392" y="488" type="line"/>
      <point x="254" y="488" type="line"/>
      <point x="287" y="639" type="line"/>
      <point x="210" y="622" type="line"/>
      <point x="182" y="488" type="line"/>
      <point x="85" y="488" type="line"/>
      <point x="71" y="428" type="line"/>
      <point x="169" y="428" type="line"/>
      <point x="103" y="117" type="line" smooth="yes"/>
      <point x="88" y="48"/>
      <point x="115" y="5"/>
      <point x="178" y="-6" type="curve"/>
      <point x="137" y="-99" type="line"/>
      <point x="165" y="-99" type="line" smooth="yes"/>
      <point x="205" y="-99"/>
      <point x="229" y="-116"/>
      <point x="229" y="-144" type="curve" smooth="yes"/>
      <point x="229" y="-177"/>
      <point x="201" y="-199"/>
      <point x="157" y="-199" type="curve" smooth="yes"/>
      <point x="128" y="-199"/>
      <point x="104" y="-189"/>
      <point x="84" y="-167" type="curve"/>
      <point x="53" y="-197" type="line"/>
      <point x="75" y="-224"/>
      <point x="114" y="-239"/>
    </contour>
  </outline>
</glyph>
<glyph name="tbar" format="2">
  <advance width="371"/>
  <unicode hex="0167"/>
  <outline>
    <contour>
      <point x="215" y="-9" type="curve" smooth="yes"/>
      <point x="239" y="-9"/>
      <point x="263" y="-6"/>
      <point x="286" y="0" type="curve"/>
      <point x="300" y="65" type="line"/>
      <point x="272" y="57"/>
      <point x="260" y="55"/>
      <point x="244" y="55" type="curve" smooth="yes"/>
      <point x="183" y="55"/>
      <point x="165" y="77"/>
      <point x="177" y="133" type="curve" smooth="yes"/>
      <point x="204" y="257" type="line"/>
      <point x="339" y="257" type="line"/>
      <point x="351" y="310" type="line"/>
      <point x="215" y="310" type="line"/>
      <point x="241" y="428" type="line"/>
      <point x="378" y="428" type="line"/>
      <point x="392" y="488" type="line"/>
      <point x="254" y="488" type="line"/>
      <point x="287" y="639" type="line"/>
      <point x="210" y="622" type="line"/>
      <point x="182" y="488" type="line"/>
      <point x="85" y="488" type="line"/>
      <point x="71" y="428" type="line"/>
      <point x="169" y="428" type="line"/>
      <point x="144" y="310" type="line"/>
      <point x="47" y="310" type="line"/>
      <point x="34" y="257" type="line"/>
      <point x="133" y="257" type="line"/>
      <point x="103" y="117" type="line" smooth="yes"/>
      <point x="85" y="36"/>
      <point x="126" y="-9"/>
    </contour>
  </outline>
</glyph>
<glyph name="Uogonek" format="2">
  <advance width="698"/>
  <unicode hex="0172"/>
  <outline>
    <contour>
      <point x="309" y="-232" type="curve" smooth="yes"/>
      <point x="333" y="-232"/>
      <point x="357" y="-227"/>
      <point x="375" y="-218" type="curve"/>
      <point x="371" y="-178" type="line"/>
      <point x="358" y="-183"/>
      <point x="339" y="-187"/>
      <point x="325" y="-187" type="curve" smooth="yes"/>
      <point x="290" y="-187"/>
      <point x="265" y="-168"/>
      <point x="265" y="-139" type="curve" smooth="yes"/>
      <point x="265" y="-93"/>
      <point x="305" y="-51"/>
      <point x="388" y="-4" type="curve"/>
      <point x="511" y="22"/>
      <point x="596" y="124"/>
      <point x="631" y="289" type="curve" smooth="yes"/>
      <point x="719" y="700" type="line"/>
      <point x="644" y="700" type="line"/>
      <point x="557" y="293" type="line" smooth="yes"/>
      <point x="525" y="146"/>
      <point x="439" y="59"/>
      <point x="325" y="59" type="curve" smooth="yes"/>
      <point x="198" y="59"/>
      <point x="129" y="158"/>
      <point x="159" y="299" type="curve" smooth="yes"/>
      <point x="245" y="700" type="line"/>
      <point x="169" y="700" type="line"/>
      <point x="85" y="303" type="line" smooth="yes"/>
      <point x="45" y="120"/>
      <point x="142" y="-9"/>
      <point x="318" y="-11" type="curve"/>
      <point x="249" y="-56"/>
      <point x="214" y="-103"/>
      <point x="214" y="-154" type="curve" smooth="yes"/>
      <point x="214" y="-201"/>
      <point x="252" y="-232"/>
    </contour>
  </outline>
</glyph>
<glyph name="uogonek" format="2">
  <advance width="541"/>
  <unicode hex="0173"/>
  <outline>
    <contour>
      <point x="326" y="-232" type="curve" smooth="yes"/>
      <point x="350" y="-232"/>
      <point x="374" y="-227"/>
      <point x="392" y="-218" type="curve"/>
      <point x="388" y="-178" type="line"/>
      <point x="375" y="-183"/>
      <point x="356" y="-187"/>
      <point x="342" y="-187" type="curve" smooth="yes"/>
      <point x="307" y="-187"/>
      <point x="282" y="-168"/>
      <point x="282" y="-139" type="curve" smooth="yes"/>
      <point x="282" y="-92"/>
      <point x="324" y="-48"/>
      <point x="413" y="0" type="curve"/>
      <point x="519" y="488" type="line"/>
      <point x="447" y="488" type="line"/>
      <point x="367" y="121" type="line"/>
      <point x="330" y="76"/>
      <point x="284" y="53"/>
      <point x="234" y="53" type="curve" smooth="yes"/>
      <point x="154" y="53"/>
      <point x="112" y="113"/>
      <point x="132" y="203" type="curve" smooth="yes"/>
      <point x="195" y="488" type="line"/>
      <point x="123" y="488" type="line"/>
      <point x="58" y="189" type="line" smooth="yes"/>
      <point x="33" y="76"/>
      <point x="95" y="-7"/>
      <point x="203" y="-7" type="curve" smooth="yes"/>
      <point x="261" y="-7"/>
      <point x="312" y="19"/>
      <point x="356" y="70" type="curve"/>
      <point x="341" y="0" type="line"/>
      <point x="353" y="0" type="line"/>
      <point x="271" y="-48"/>
      <point x="231" y="-99"/>
      <point x="231" y="-154" type="curve" smooth="yes"/>
      <point x="231" y="-201"/>
      <point x="269" y="-232"/>
    </contour>
  </outline>
</glyph>
<glyph name="dotlessj" format="2">
  <advance width="220"/>
  <unicode hex="0237"/>
  <anchor x="163" y="488" name="top"/>
  <outline>
    <contour>
      <point x="-63" y="-212" type="curve" smooth="yes"/>
      <point x="9" y="-212"/>
      <point x="59" y="-168"/>
      <point x="74" y="-92" type="curve" smooth="yes"/>
      <point x="200" y="488" type="line"/>
      <point x="128" y="488" type="line"/>
      <point x="5" y="-86" type="line" smooth="yes"/>
      <point x="-5" y="-130"/>
      <point x="-24" y="-147"/>
      <point x="-61" y="-147" type="curve" smooth="yes"/>
      <point x="-78" y="-147"/>
      <point x="-90" y="-145"/>
      <point x="-100" y="-141" type="curve"/>
      <point x="-114" y="-204" type="line"/>
      <point x="-101" y="-209"/>
      <point x="-81" y="-212"/>
    </contour>
  </outline>
</glyph>
<glyph name="breve" format="2">
  <advance width="600"/>
  <unicode hex="02D8"/>
  <outline>
    <contour>
      <point x="382" y="580" type="curve" smooth="yes"/>
      <point x="457" y="580"/>
      <point x="518" y="625"/>
      <point x="552" y="702" type="curve"/>
      <point x="503" y="718" type="line"/>
      <point x="477" y="658"/>
      <point x="436" y="626"/>
      <point x="384" y="626" type="curve" smooth="yes"/>
      <point x="327" y="626"/>
      <point x="294" y="659"/>
      <point x="292" y="721" type="curve"/>
      <point x="244" y="712" type="line"/>
      <point x="246" y="631"/>
      <point x="300" y="580"/>
    </contour>
  </outline>
</glyph>
<glyph name="uni0328" format="2">
  <unicode hex="0328"/>
  <anchor x="298" y="0" name="_bottom"/>
  <outline>
    <contour>
      <point x="211" y="-232" type="curve" smooth="yes"/>
      <point x="235" y="-232"/>
      <point x="259" y="-227"/>
      <point x="277" y="-218" type="curve"/>
      <point x="273" y="-178" type="line"/>
      <point x="260" y="-183"/>
      <point x="241" y="-187"/>
      <point x="227" y="-187" type="curve" smooth="yes"/>
      <point x="192" y="-187"/>
      <point x="167" y="-168"/>
      <point x="167" y="-139" type="curve" smooth="yes"/>
      <point x="167" y="-92"/>
      <point x="209" y="-48"/>
      <point x="298" y="0" type="curve"/>
      <point x="270" y="18" type="line"/>
      <point x="167" y="-36"/>
      <point x="116" y="-92"/>
      <point x="116" y="-154" type="curve" smooth="yes"/>
      <point x="116" y="-201"/>
      <point x="154" y="-232"/>
    </contour>
  </outline>
</glyph>
<glyph name="endash" format="2">
  <advance width="540"/>
  <unicode hex="2013"/>
  <outline>
    <contour>
      <point x="59" y="250" type="line"/>
      <point x="478" y="250" type="line"/>
      <point x="492" y="313" type="line"/>
      <point x="74" y="313" type="line"/>
    </contour>
  </outline>
</glyph>
<glyph name="emdash" format="2">
  <advance width="679"/>
  <unicode hex="2014"/>
  <outline>
    <contour>
      <point x="59" y="250" type="line"/>
      <point x="617" y="250" type="line"/>
      <point x="632" y="313" type="line"/>
      <point x="74" y="313" type="line"/>
    </contour>
  </outline>
</glyph>
<glyph name="dagger" format="2">
  <advance width="426"/>
  <unicode hex="2020"/>
  <outline>
    <contour>
      <point x="128" y="0" type="line"/>
      <point x="191" y="0" type="line"/>
      <point x="285" y="443" type="line"/>
      <point x="417" y="443" type="line"/>
      <point x="430" y="500" type="line"/>
      <point x="297" y="500" type="line"/>
      <point x="340" y="700" type="line"/>
      <point x="277" y="700" type="line"/>
      <point x="234" y="500" type="line"/>
      <point x="103" y="500" type="line"/>
      <point x="90" y="443" type="line"/>
      <point x="222" y="443" type="line"/>
    </contour>
  </outline>
</glyph>
<glyph name="guilsinglleft" format="2">
  <advance width="393"/>
  <unicode hex="2039"/>
  <outline>
    <contour>
      <point x="208" y="0" type="line"/>
      <point x="283" y="0" type="line"/>
      <point x="123" y="241" type="line"/>
      <point x="393" y="488" type="line"/>
      <point x="315" y="488" type="line"/>
      <point x="43" y="245" type="line"/>
    </contour>
  </outline>
</glyph>
<glyph name="uni2074" format="2">
  <advance width="324"/>
  <unicode hex="2074"/>
  <outline>
    <contour>
      <point x="235" y="350" type="line"/>
      <point x="285" y="350" type="line"/>
      <point x="304" y="438" type="line"/>
      <point x="345" y="438" type="line"/>
      <point x="355" y="480" type="line"/>
      <point x="313" y="480" type="line"/>
      <point x="360" y="700" type="line"/>
      <point x="303" y="700" type="line"/>
      <point x="70" y="479" type="line"/>
      <point x="62" y="438" type="line"/>
      <point x="254" y="438" type="line"/>
    </contour>
    <contour>
      <point x="127" y="480" type="line"/>
      <point x="297" y="642" type="line"/>
      <point x="263" y="480" type="line"/>
    </contour>
  </outline>
</glyph>
<glyph name="uni2075" format="2">
  <advance width="298"/>
  <unicode hex="2075"/>
  <outline>
    <contour>
      <point x="180" y="345" type="curve"/>
      <point x="258" y="345"/>
      <point x="321" y="400"/>
      <point x="321" y="470" type="curve" smooth="yes"/>
      <point x="321" y="528"/>
      <point x="275" y="566"/>
      <point x="206" y="566" type="curve" smooth="yes"/>
      <point x="187" y="566"/>
      <point x="168" y="563"/>
      <point x="148" y="557" type="curve"/>
      <point x="174" y="658" type="line"/>
      <point x="343" y="658" type="line"/>
      <point x="352" y="700" type="line"/>
      <point x="140" y="700" type="line"/>
      <point x="98" y="530" type="line"/>
      <point x="127" y="517" type="line"/>
      <point x="148" y="525"/>
      <point x="168" y="528"/>
      <point x="193" y="528" type="curve" smooth="yes"/>
      <point x="241" y="528"/>
      <point x="269" y="505"/>
      <point x="269" y="464" type="curve" smooth="yes"/>
      <point x="269" y="420"/>
      <point x="230" y="387"/>
      <point x="181" y="387" type="curve"/>
      <point x="147" y="387"/>
      <point x="117" y="400"/>
      <point x="85" y="428" type="curve"/>
      <point x="56" y="391" type="line"/>
      <point x="88" y="360"/>
      <point x="129" y="345"/>
    </contour>
  </outline>
</glyph>
<glyph name="uni2078" format="2">
  <advance width="321"/>
  <unicode hex="2078"/>
  <outline>
    <contour>
      <point x="194" y="345" type="curve" smooth="yes"/>
      <point x="272" y="345"/>
      <point x="334" y="393"/>
      <point x="334" y="453" type="curve" smooth="yes"/>
      <point x="334" y="488"/>
      <point x="311" y="516"/>
      <point x="275" y="529" type="curve"/>
      <point x="322" y="541"/>
      <point x="355" y="577"/>
      <point x="355" y="619" type="curve" smooth="yes"/>
      <point x="355" y="669"/>
      <point x="308" y="706"/>
      <point x="245" y="706" type="curve" smooth="yes"/>
      <point x="175" y="706"/>
      <point x="117" y="660"/>
      <point x="117" y="604" type="curve" smooth="yes"/>
      <point x="117" y="573"/>
      <point x="134" y="549"/>
      <point x="163" y="536" type="curve"/>
      <point x="109" y="525"/>
      <point x="70" y="483"/>
      <point x="70" y="436" type="curve" smooth="yes"/>
      <point x="70" y="383"/>
      <point x="121" y="345"/>
    </contour>
    <contour>
      <point x="231" y="552" type="curve" smooth="yes"/>
      <point x="194" y="552"/>
      <point x="166" y="574"/>
      <point x="166" y="603" type="curve" smooth="yes"/>
      <point x="166" y="637"/>
      <point x="199" y="664"/>
      <point x="241" y="664" type="curve" smooth="yes"/>
      <point x="277" y="664"/>
      <point x="305" y="642"/>
      <point x="305" y="613" type="curve" smooth="yes"/>
      <point x="305" y="580"/>
      <point x="271" y="552"/>
    </contour>
    <contour>
      <point x="198" y="387" type="curve" smooth="yes"/>
      <point x="153" y="387"/>
      <point x="121" y="411"/>
      <point x="121" y="445" type="curve" smooth="yes"/>
      <point x="121" y="482"/>
      <point x="159" y="512"/>
      <point x="207" y="512" type="curve" smooth="yes"/>
      <point x="252" y="512"/>
      <point x="284" y="488"/>
      <point x="284" y="454" type="curve" smooth="yes"/>
      <point x="284" y="417"/>
      <point x="245" y="387"/>
    </contour>
  </outline>
</glyph>
<glyph name="uni2080" format="2">
  <advance width="347"/>
  <unicode hex="2080"/>
  <outline>
    <contour>
      <point x="134" y="-5" type="curve" smooth="yes"/>
      <point x="228" y="-5"/>
      <point x="306" y="96"/>
      <point x="306" y="217" type="curve" smooth="yes"/>
      <point x="306" y="301"/>
      <point x="257" y="355"/>
      <point x="181" y="355" type="curve" smooth="yes"/>
      <point x="87" y="355"/>
      <point x="9" y="254"/>
      <point x="9" y="133" type="curve" smooth="yes"/>
      <point x="9" y="49"/>
      <point x="58" y="-5"/>
    </contour>
    <contour>
      <point x="139" y="41" type="curve" smooth="yes"/>
      <point x="89" y="41"/>
      <point x="58" y="76"/>
      <point x="58" y="135" type="curve" smooth="yes"/>
      <point x="58" y="229"/>
      <point x="112" y="310"/>
      <point x="175" y="310" type="curve" smooth="yes"/>
      <point x="226" y="310"/>
      <point x="257" y="274"/>
      <point x="257" y="216" type="curve" smooth="yes"/>
      <point x="257" y="121"/>
      <point x="203" y="41"/>
    </contour>
  </outline>
</glyph>
<glyph name="uni2081" format="2">
  <advance width="163"/>
  <unicode hex="2081"/>
  <outline>
    <contour>
      <point x="29" y="0" type="line"/>
      <point x="79" y="0" type="line"/>
      <point x="154" y="350" type="line"/>
      <point x="122" y="350" type="line"/>
      <point x="35" y="315" type="line"/>
      <point x="25" y="270" type="line"/>
      <point x="93" y="296" type="line"/>
    </contour>
  </outline>
</glyph>
<glyph name="uni2083" format="2">
  <advance width="306"/>
  <unicode hex="2083"/>
  <outline>
    <contour>
      <point x="110" y="-5" type="curve" smooth="yes"/>
      <point x="186" y="-5"/>
      <point x="245" y="43"/>
      <point x="245" y="103" type="curve" smooth="yes"/>
      <point x="245" y="139"/>
      <point x="220" y="165"/>
      <point x="179" y="176" type="curve"/>
      <point x="231" y="187"/>
      <point x="269" y="222"/>
      <point x="269" y="264" type="curve" smooth="yes"/>
      <point x="269" y="317"/>
      <point x="222" y="355"/>
      <point x="159" y="355" type="curve" smooth="yes"/>
      <point x="119" y="355"/>
      <point x="77" y="342"/>
      <point x="36" y="316" type="curve"/>
      <point x="58" y="277" type="line"/>
      <point x="96" y="299"/>
      <point x="124" y="309"/>
      <point x="152" y="309" type="curve" smooth="yes"/>
      <point x="190" y="309"/>
      <point x="217" y="287"/>
      <point x="217" y="256" type="curve" smooth="yes"/>
      <point x="217" y="222"/>
      <point x="181" y="196"/>
      <point x="132" y="196" type="curve" smooth="yes"/>
      <point x="104" y="196" type="line"/>
      <point x="96" y="155" type="line"/>
      <point x="127" y="155" type="line" smooth="yes"/>
      <point x="169" y="155"/>
      <point x="196" y="134"/>
      <point x="196" y="100" type="curve" smooth="yes"/>
      <point x="196" y="66"/>
      <point x="159" y="40"/>
      <point x="113" y="40" type="curve" smooth="yes"/>
      <point x="76" y="40"/>
      <point x="41" y="56"/>
      <point x="14" y="84" type="curve"/>
      <point x="-20" y="49" type="line"/>
      <point x="12" y="12"/>
      <point x="54" y="-5"/>
    </contour>
  </outline>
</glyph>
<glyph name="uni2085" format="2">
  <advance width="298"/>
  <unicode hex="2085"/>
  <outline>
    <contour>
      <point x="106" y="-5" type="curve"/>
      <point x="184" y="-5"/>
      <point x="247" y="50"/>
      <point x="247" y="120" type="curve" smooth="yes"/>
      <point x="247" y="178"/>
      <point x="201" y="216"/>
      <point x="132" y="216" type="curve" smooth="yes"/>
      <point x="113" y="216"/>
      <point x="94" y="213"/>
      <point x="74" y="207" type="curve"/>
      <point x="100" y="308" type="line"/>
      <point x="269" y="308" type="line"/>
      <point x="278" y="350" type="line"/>
      <point x="66" y="350" type="line"/>
      <point x="24" y="180" type="line"/>
      <point x="53" y="167" type="line"/>
      <point x="74" y="175"/>
      <point x="94" y="178"/>
      <point x="119" y="178" type="curve" smooth="yes"/>
      <point x="167" y="178"/>
      <point x="195" y="155"/>
      <point x="195" y="114" type="curve" smooth="yes"/>
      <point x="195" y="70"/>
      <point x="156" y="37"/>
      <point x="107" y="37" type="curve"/>
      <point x="73" y="37"/>
      <point x="43" y="50"/>
      <point x="11" y="78" type="curve"/>
      <point x="-18" y="41" type="line"/>
      <point x="14" y="10"/>
      <point x="55" y="-5"/>
    </contour>
  </outline>
</glyph>
<glyph name="uni2086" format="2">
  <advance width="323"/>
  <unicode hex="2086"/>
  <outline>
    <contour>
      <point x="132" y="-5" type="curve" smooth="yes"/>
      <point x="206" y="-5"/>
      <point x="267" y="52"/>
      <point x="267" y="121" type="curve" smooth="yes"/>
      <point x="267" y="175"/>
      <point x="224" y="214"/>
      <point x="165" y="214" type="curve" smooth="yes"/>
      <point x="128" y="214"/>
      <point x="90" y="199"/>
      <point x="62" y="173" type="curve"/>
      <point x="77" y="252"/>
      <point x="130" y="309"/>
      <point x="195" y="309" type="curve" smooth="yes"/>
      <point x="217" y="309"/>
      <point x="242" y="300"/>
      <point x="268" y="285" type="curve"/>
      <point x="295" y="325" type="line"/>
      <point x="265" y="345"/>
      <point x="237" y="353"/>
      <point x="202" y="353" type="curve" smooth="yes"/>
      <point x="96" y="353"/>
      <point x="9" y="253"/>
      <point x="9" y="132" type="curve" smooth="yes"/>
      <point x="9" y="48"/>
      <point x="58" y="-5"/>
    </contour>
    <contour>
      <point x="138" y="39" type="curve" smooth="yes"/>
      <point x="86" y="39"/>
      <point x="56" y="79"/>
      <point x="58" y="141" type="curve"/>
      <point x="84" y="164"/>
      <point x="114" y="177"/>
      <point x="145" y="177" type="curve" smooth="yes"/>
      <point x="188" y="177"/>
      <point x="218" y="151"/>
      <point x="218" y="114" type="curve" smooth="yes"/>
      <point x="218" y="72"/>
      <point x="181" y="39"/>
    </contour>
  </outline>
</glyph>
<glyph name="trademark" format="2">
  <advance width="658"/>
  <unicode hex="2122"/>
  <outline>
    <contour>
      <point x="352" y="421" type="line"/>
      <point x="392" y="421" type="line"/>
      <point x="439" y="648" type="line"/>
      <point x="492" y="440" type="line"/>
      <point x="627" y="640" type="line"/>
      <point x="579" y="421" type="line"/>
      <point x="618" y="421" type="line"/>
      <point x="678" y="700" type="line"/>
      <point x="626" y="700" type="line"/>
      <point x="506" y="519" type="line"/>
      <point x="462" y="700" type="line"/>
      <point x="412" y="700" type="line"/>
    </contour>
    <contour>
      <point x="173" y="421" type="line"/>
      <point x="214" y="421" type="line"/>
      <point x="266" y="662" type="line"/>
      <point x="358" y="662" type="line"/>
      <point x="366" y="700" type="line"/>
      <point x="141" y="700" type="line"/>
      <point x="133" y="662" type="line"/>
      <point x="225" y="662" type="line"/>
    </contour>
  </outline>
</glyph>
<glyph name="uni2191" format="2">
  <advance width="567"/>
  <unicode hex="2191"/>
  <outline>
    <contour>
      <point x="246" y="0" type="line"/>
      <point x="314" y="0" type="line"/>
      <point x="314" y="614" type="line"/>
      <point x="480" y="395" type="line"/>
      <point x="527" y="432" type="line"/>
      <point x="281" y="750" type="line"/>
      <point x="35" y="432" type="line"/>
      <point x="83" y="394" type="line"/>
      <point x="246" y="609" type="line"/>
    </contour>
  </outline>
</glyph>
<glyph name="acutecomb" format="2">
  <anchor x="352" y="488" name="_top"/>
  <outline>
    <contour>
      <point x="319" y="584" type="line"/>
      <point x="389" y="584" type="line"/>
      <point x="555" y="706" type="line"/>
      <point x="454" y="706" type="line"/>
    </contour>
  </outline>
</glyph>
<glyph name="aogonek.school" format="2">
  <advance width="570"/>
  <outline>
    <contour>
      <point x="356" y="-232" type="curve" smooth="yes"/>
      <point x="380" y="-232"/>
      <point x="404" y="-227"/>
      <point x="422" y="-218" type="curve"/>
      <point x="418" y="-178" type="line"/>
      <point x="405" y="-183"/>
      <point x="386" y="-187"/>
      <point x="372" y="-187" type="curve" smooth="yes"/>
      <point x="337" y="-187"/>
      <point x="312" y="-168"/>
      <point x="312" y="-139" type="curve" smooth="yes"/>
      <point x="312" y="-92"/>
      <point x="353" y="-48"/>
      <point x="442" y="0" type="curve"/>
      <point x="549" y="488" type="line"/>
      <point x="477" y="488" type="line"/>
      <point x="460" y="411" type="line"/>
      <point x="426" y="464"/>
      <point x="371" y="493"/>
      <point x="303" y="493" type="curve" smooth="yes"/>
      <point x="164" y="493"/>
      <point x="51" y="367"/>
      <point x="51" y="214" type="curve" smooth="yes"/>
      <point x="51" y="88"/>
      <point x="133" y="-7"/>
      <point x="245" y="-7" type="curve" smooth="yes"/>
      <point x="297" y="-7"/>
      <point x="344" y="12"/>
      <point x="381" y="46" type="curve"/>
      <point x="371" y="0" type="line"/>
      <point x="383" y="0" type="line"/>
      <point x="301" y="-48"/>
      <point x="261" y="-99"/>
      <point x="261" y="-154" type="curve" smooth="yes"/>
      <point x="261" y="-201"/>
      <point x="299" y="-232"/>
    </contour>
    <contour>
      <point x="122" y="220" type="curve" smooth="yes"/>
      <point x="122" y="337"/>
      <point x="206" y="429"/>
      <point x="312" y="429" type="curve" smooth="yes"/>
      <point x="369" y="429"/>
      <point x="422" y="398"/>
      <point x="448" y="353" type="curve"/>
      <point x="394" y="105" type="line"/>
      <point x="359" y="73"/>
      <point x="316" y="56"/>
      <point x="271" y="56" type="curve" smooth="yes"/>
      <point x="183" y="56"/>
      <point x="122" y="123"/>
    </contour>
  </outline>
</glyph>
<glyph name="exclamdown.cap" format="2">
  <advance width="215"/>
  <outline>
    <contour>
      <point x="189" y="500" type="line"/>
      <point x="132" y="500" type="line"/>
      <point x="10" y="-22" type="line"/>
      <point x="84" y="-22" type="line"/>
    </contour>
    <contour>
      <point x="198" y="713" type="curve" smooth="yes"/>
      <point x="168" y="713"/>
      <point x="141" y="685"/>
      <point x="141" y="654" type="curve" smooth="yes"/>
      <point x="141" y="628"/>
      <point x="160" y="607"/>
      <point x="187" y="607" type="curve" smooth="yes"/>
      <point x="218" y="607"/>
      <point x="245" y="634"/>
      <point x="245" y="665" type="curve" smooth="yes"/>
      <point x="245" y="692"/>
      <point x="225" y="713"/>
    </contour>
  </outline>
</glyph>
<glyph name="uni0304" format="2">
  <anchor x="352" y="488" name="_top"/>
  <outline>
    <contour>
      <point x="238" y="611" type="line"/>
      <point x="506" y="611" type="line"/>
      <point x="517" y="663" type="line"/>
      <point x="249" y="663" type="line"/>
    </contour>
  </outline>
</glyph>
<glyph name="uni0326" format="2">
  <anchor x="248" y="0" name="_bottom"/>
  <outline>
    <contour>
      <point x="117" y="-274" type="line"/>
      <point x="170" y="-274" type="line"/>
      <point x="281" y="-87" type="line"/>
      <point x="204" y="-87" type="line"/>
    </contour>
  </outline>
</glyph>
